<?xml version="1.0" encoding="UTF-8"?><svg id="Layer_2" xmlns="http://www.w3.org/2000/svg" width="867.9" height="664" viewBox="0 0 867.9 664"><defs><style>.cls-1{fill:#60da0a;}.cls-1,.cls-2,.cls-3,.cls-4,.cls-5,.cls-6,.cls-7,.cls-8,.cls-9,.cls-10,.cls-11,.cls-12,.cls-13,.cls-14,.cls-15,.cls-16,.cls-17,.cls-18,.cls-19,.cls-20,.cls-21,.cls-22,.cls-23,.cls-24,.cls-25,.cls-26,.cls-27,.cls-28,.cls-29,.cls-30,.cls-31,.cls-32,.cls-33,.cls-34,.cls-35,.cls-36,.cls-37,.cls-38,.cls-39,.cls-40,.cls-41,.cls-42,.cls-43,.cls-44,.cls-45,.cls-46,.cls-47,.cls-48,.cls-49,.cls-50,.cls-51,.cls-52,.cls-53,.cls-54,.cls-55,.cls-56,.cls-57,.cls-58,.cls-59,.cls-60,.cls-61,.cls-62,.cls-63,.cls-64,.cls-65,.cls-66,.cls-67,.cls-68,.cls-69,.cls-70,.cls-71,.cls-72,.cls-73,.cls-74,.cls-75,.cls-76,.cls-77,.cls-78,.cls-79,.cls-80,.cls-81,.cls-82,.cls-83,.cls-84,.cls-85,.cls-86,.cls-87,.cls-88,.cls-89,.cls-90,.cls-91,.cls-92,.cls-93{stroke-width:0px;}.cls-2{fill:#47c102;}.cls-3{fill:#5dd904;}.cls-4{fill:#5dd606;}.cls-5{fill:#49c204;}.cls-6{fill:#4bc404;}.cls-7{fill:#5bd406;}.cls-8{fill:#7c5d48;}.cls-9{fill:#259403;}.cls-10{fill:#259601;}.cls-11{fill:#50c40b;}.cls-12{fill:#2a9b02;}.cls-13{fill:#2a9809;}.cls-14{fill:#2a9c02;}.cls-15{fill:#474034;}.cls-16{fill:#54b903;}.cls-17{fill:#54cd05;}.cls-18{fill:#289606;}.cls-19{fill:#5ad303;}.cls-20{fill:#52cc02;}.cls-21{fill:#886650;}.cls-22{fill:#51c906;}.cls-23{fill:#6fdb24;}.cls-24{fill:#39ae03;}.cls-25{fill:#3bad09;}.cls-26{fill:#57c815;}.cls-27{fill:#1a8601;}.cls-28{fill:#188302;}.cls-29{fill:#0b6d02;}.cls-30{fill:#0c7002;}.cls-31{fill:#3db403;}.cls-32{fill:#34a804;}.cls-33{fill:#44332f;}.cls-34{fill:#42b805;}.cls-35{fill:#36aa04;}.cls-36{fill:#188104;}.cls-37{fill:#096b02;}.cls-38{fill:#096703;}.cls-39{fill:#1b8703;}.cls-40{fill:#0d6d06;}.cls-41{fill:#064c09;}.cls-42{fill:#0a6a03;}.cls-43{fill:#066004;}.cls-44{fill:#066402;}.cls-45{fill:#075c07;}.cls-46{fill:#208b05;}.cls-47{fill:#0f7403;}.cls-48{fill:#117901;}.cls-49{fill:#178202;}.cls-50{fill:#229102;}.cls-51{fill:#137b03;}.cls-52{fill:#137507;}.cls-53{fill:#dedbc9;}.cls-54{fill:#32a702;}.cls-55{fill:#fdfefd;}.cls-56{fill:#f1f5f0;}.cls-57{fill:#fffdfd;}.cls-58{fill:#fffcfc;}.cls-59{fill:#fffcfd;}.cls-61{fill:#ede6d8;}.cls-62{fill:#fffbfc;}.cls-63{fill:#fffbfb;}.cls-64{fill:#fffefe;}.cls-65{fill:#fff9f9;}.cls-66{fill:#fcfefb;}.cls-67{fill:#ff071f;}.cls-68{fill:#ff071e;}.cls-69{fill:#e5e4d0;}.cls-70{fill:#fefefe;}.cls-71{fill:#fefcfc;}.cls-73{fill:#eee7d9;}.cls-74{fill:#eef2ec;}.cls-75{fill:#ebe5d6;}.cls-76{fill:#fcfdfb;}.cls-77{fill:#002f0d;}.cls-78{fill:#002114;}.cls-79{fill:#003a09;}.cls-80{fill:#002c0e;}.cls-81{fill:#045c03;}.cls-82{fill:#045905;}.cls-83{fill:#025404;}.cls-84{fill:#024308;}.cls-85{fill:#045b03;}.cls-86{fill:#024a06;}.cls-87{fill:#035904;}.cls-88{fill:#045605;}.cls-89{fill:#68db18;}.cls-90{fill:#014706;}.cls-91{fill:#013c09;}.cls-92{fill:#014905;}.cls-93{fill:#014b05;}</style></defs><g id="Layer_1-2"><path class="cls-60" d="M365.98,0h501.93v664c-92.95,0-185.97,0-279.32-.37,9.27-1.38,17.81-5.39,24.18-12.22,9-9.66,16.95-20.31,25.22-30.63,7.14-8.9,14.11-17.94,21.01-26.73,11.11,8.54,21.53,17.22,32.62,24.92,16.28,11.31,32.16,22.95,51.87,28.85,10.71,3.21,18.97,1.5,26.84-3.98,10.69-7.44,20.75-15.87,30.58-24.44,8.87-7.73,17.78-15.61,25.39-24.52,11.28-13.19,21.21-27.58,27.15-44.07,4.47-12.41,9.06-25.04,11.17-37.97,2.27-13.91,2.28-28.29,2.15-42.46-.08-8.88-1.71-17.86-3.53-26.6-4.16-19.91-11.03-38.95-22.13-56.05-8.65-13.32-17.58-26.63-27.94-38.6-9.58-11.07-20.86-20.79-32.05-30.32-18.29-15.59-39.15-26.96-61.87-34.8-20.7-7.14-41.98-10.83-63.96-10.05-6.66.24-13.34.04-19.48.04-1.25-14.34-2.32-29.09-3.87-43.79-1.99-18.93-7.14-37.05-13.76-54.9-12.89-34.77-32.93-64.85-58.74-91.12-8.59-8.74-18.28-16.48-27.95-24.06-22.99-18.04-48.66-31.32-76.13-41.07-24.82-8.81-50.29-14.93-76.63-17.09-4.27-.35-8.49-1.28-12.74-1.95Z"/><path class="cls-33" d="M365.51,0c4.71.66,8.94,1.6,13.21,1.95,26.34,2.16,51.81,8.28,76.63,17.09,27.47,9.75,53.14,23.03,76.13,41.07,9.67,7.59,19.36,15.32,27.95,24.06,25.81,26.27,45.85,56.35,58.74,91.12,6.62,17.86,11.77,35.98,13.76,54.9,1.55,14.7,2.62,29.45,3.87,43.79,6.14,0,12.82.2,19.48-.04,21.98-.78,43.25,2.9,63.96,10.05,22.72,7.84,43.58,19.21,61.87,34.8,11.19,9.54,22.47,19.25,32.05,30.32,10.36,11.97,19.29,25.29,27.94,38.6,11.1,17.1,17.98,36.14,22.13,56.05,1.83,8.75,3.46,17.72,3.53,26.6.12,14.17.11,28.55-2.15,42.46-2.11,12.93-6.69,25.56-11.17,37.97-5.94,16.49-15.88,30.87-27.15,44.07-7.61,8.91-16.52,16.79-25.39,24.52-9.83,8.57-19.89,17-30.58,24.44-7.87,5.48-16.13,7.19-26.84,3.98-19.71-5.9-35.59-17.54-51.87-28.85-11.09-7.71-21.51-16.38-32.62-24.92-6.9,8.79-13.87,17.83-21.01,26.73-8.28,10.32-16.22,20.97-25.22,30.63-6.36,6.82-14.9,10.84-24.64,12.22-1.21.37-2.28.37-3.78-.06-.52-2.15-.61-3.87-.6-5.99.13-1.79.16-3.18.36-4.92.48-2.41.78-4.48,1.31-6.76.68-1.34,1.15-2.46,1.99-3.64,7-1.98,12.22-5.87,16.42-11.28,17.44-22.46,34.91-44.91,52.37-67.36,5.48-7.04,10.96-14.09,16.67-21.43-5.15-5.34-9.96-10.34-14.91-15.65-5.11-5.63-10.08-10.95-14.8-16.43.59-.65.92-1.16,1.25-1.67-1.41-.14-2.82-.29-4.4-.72-13.98-13.62-27.79-26.94-41.57-40.25-4.22,3.27-7.73,6.03-11.28,8.75-11.71,8.94-23.44,17.87-35.28,26.44,2.62-4.8,5.36-9.24,8.27-13.74.08,0-.02.05-.49.02-3.65,2.08-7.15,3.98-10.19,6.44-12.63,10.27-24.22,21.54-33.07,35.7-.99,1.05-1.74,1.94-2.84,2.88-4.1,3.67-7.86,7.29-11.9,11.12-5.19,7.6-5.78,15.87-5.6,24.28-1.6-.54-2.82-.99-4.25-1.7-3.4-1.78-6.58-3.29-9.99-5.05-2.17-1.41-4.12-2.57-5.98-4.15.49-3.43.9-6.44,1.65-9.62,1.08-2.79,1.57-5.52,2.61-8.02,1.41-3.37,3.25-6.56,5.23-9.92,18-19.47,41.11-32.21,60.89-50.13-3.35-4.28-6.89-8.82-10.65-13.63-9.31-12.96-18.4-25.66-27.35-38.64,1.66-2.04,3.19-3.79,5.01-5.71,3.08-3.06,5.86-5.96,9-8.8.84.46,1.46.79,1.82,1.3,7.73,11,15.27,22.14,23.21,33,5.04,6.89,10.66,13.37,16.14,20.19,6.67-5.28,12.58-9.96,18.65-14.77-1.03-1.08-1.52-1.77-2.17-2.27-16.54-12.79-33.11-25.54-49.6-38.38-1.31-1.02-2.13-2.66-2.92-4.21,2.12-2.04,3.98-3.9,6.14-5.9,3.13-2.12,5.97-4.09,9.13-5.87,14.02,10.44,27.71,20.69,41.61,31.19,9.62,8.37,19.03,16.49,28.62,24.92,19.13,18.9,38.28,37.29,56.96,56.15,11.08,11.18,21.41,23.11,32.2,35.01,6.36,7.7,12.6,15.08,18.96,22.79,14.36,18.84,28.99,37.09,38.31,60.07,7.96-6.41,15.53-12.04,22.58-18.26,14.56-12.87,29.01-25.92,39.71-42.42,1.1-1.7,1.63-3.77,2.43-5.63,0,.03-.06.02.26.11.58-.25.85-.59,1.34-1.18,8.19-13.43,13.84-27.54,17.24-43.01,6.45-27.26,5.76-54.12-2.96-80.1-21.72-64.67-65.18-109.22-128.81-133.28-28.36-10.73-58.04-11.99-88.16-4.99-10.88,3.73-21.4,7.46-32.27,11.29-33.38,15.74-55.64,42.8-76.87,70.96,7.31,3.98,13.84,7.52,20.07,11.27-2.17,1.04-4.04,1.88-6.3,2.76-4.76,1.85-9.14,3.66-13.86,5.46-4.13,2.2-7.91,4.42-12.06,6.65-5.12,3.04-9.87,6.07-14.94,9.24-2.12.75-3.92,1.37-6.15,1.99-10.39,1.06-20.34,2.13-30.53,3.22.43,4.22.74,8.24,1.29,12.23.44,3.16,1.18,6.28,1.75,9.74-.37,1.12-.7,1.91-1.34,2.86-4.11,4.69-7.92,9.24-12.03,13.95-1.75,1.14-3.21,2.12-4.99,2.84-3.14-22.5-5.96-44.74-8.69-67.33,5.01-11.17,9.93-21.99,15.17-32.56.83,1.78,1.6,3.3,1.8,4.88,1.13,9.19,2.12,18.39,3.19,27.59.38,3.24,1.8,5.1,5.53,4.56,3.93-.56,7.91-.66,11.86-1.08,9.66-1.03,19.32-2.14,29.28-3.24-5.54-15.58,5.22-25.81,11.59-37.51-2.18-.46-3.94-.99-5.73-1.19-9.2-1.04-18.4-2.16-27.62-2.95-9.03-.78-18.1-1.11-27.13-1.82-2.65-.21-3.65.17-2.17,3.09-6.22,6.47-12.32,12.64-18.49,18.37-.84-6.7-1.7-12.94-2.35-19.21-.28-2.66-1.05-4.2-4.12-4.27-11.6-.27-23.2-.72-35.26-1.17-43.72-1.12-86.96-.83-130.35,1.44-1.63,12.66-3.26,24.99-4.81,37.33-2.16,17.13-4.24,34.26-6.39,51.39-2.19,17.45-4.42,34.9-6.75,52.5-.14.54-.16.93-.29,1.47-.11.14-.22.48-.55.57-2.35.46-4.37.83-6.42.81-1.63-5.19-3.23-9.99-4.84-15.17-1.02-3.06-2.02-5.75-3.05-8.79-.45-1.48-.88-2.59-1.35-3.92-.17-.5-.37-.71-.63-1.27-.06-1.48-.14-2.55-.18-4.04,1.78-13.59,3.52-26.77,5.3-40.31-4.79-.4-9.02-.65-13.22-1.12-4.7-.52-9.38-1.23-14.37-2.03-4.88-6.99-9.46-13.8-13.75-20.95,1.57-.54,2.89-1.05,4.14-.92,10.7,1.1,21.41,2.07,32.06,3.57,7.31,1.03,8.36.37,8.99-6.82.58-6.75,1.71-13.44,2.54-20.17.82-6.66,1.58-13.33,2.45-20.72-10.7.77-20.74,1.22-30.73,2.27-17.6,1.84-35.17,4.05-53.06,6-3.63-2.45-6.96-4.8-10.33-7.31-.14-.21-.24-.26-.33-.3.15.13.3.26.38.75,1.02,2.71,2.12,5.05,2.96,7.72-11.86,2.87-23.5,5.26-35.05,8.03-5.65,1.36-11.13,3.44-17.88,5.58,2.16,1.22,2.94,1.87,3.83,2.13,10.82,3.1,21.57,6.46,32.5,9.11,11.22,2.72,22.61,4.72,34.15,7.29,2.97,7.4,5.71,14.55,8.09,21.53-7.4-1.35-14.48-2.32-21.47-3.76-15.52-3.2-31-6.62-46.49-9.96-13.45-2.9-25.2-9.82-37.02-16.31-8.64-4.74-12.02-13.91-14.42-22.77-5.81-21.41-7.55-43.44-8.1-65.52-.37-14.99-.61-30.02.1-44.98.56-11.71,1.8-23.52,4.26-34.96,5.21-24.22,13.65-47.3,25.38-69.29,11.93-22.35,26.99-42.23,44.24-60.54,6.08-6.45,13.1-12.02,19.76-17.91,14.42-12.77,30.52-23.15,47.39-32.28,19.53-10.57,40-19.1,61.59-24.29,16.99-4.09,34.3-6.85,51.48-10.11C295.79,1.17,300.4.67,304.98,0c20.02,0,40.04,0,60.53,0M613.77,270.96c-.67-12.61-.44-25.35-2.16-37.82-5.73-41.6-21.83-79.01-47.73-112.07-5.27-6.72-11.57-12.64-17.8-19.44-5.37-5.21-10.74-10.42-16.41-16.22-18.52-15.7-38.88-28.51-61.04-38.4-48.21-21.51-98.88-28.85-151.31-26.38-28.06,1.32-55.57,5.63-82.22,14.46-11.29,3.74-22.12,8.86-33.95,13.24-12.75,7.43-25.49,14.86-38.91,22.53-21.11,14.61-39.56,32.02-55.2,52.4-30.34,39.55-47.62,84.1-49.75,133.97-1.15,26.94.18,53.93,4,80.68,1.16,8.11,3.48,16.05,5.4,24.66,14.95-9.56,30.57-13.89,46.46-16.43,29.19-4.67,58.46-9.31,87.88-12.01,33.43-3.06,67.04-4.98,100.6-5.56,36.93-.64,73.9.63,110.84,1.45,14.62.33,29.25,1.36,43.83,2.66,20.37,1.82,40.68,4.24,61.03,6.23,1.74.17,4.11-.41,5.35-1.55,11.25-10.34,22.31-20.89,34.09-31.52,15.41-10.82,32.11-19,50.17-24.38,7.19-2.14,7.18-2.18,6.84-10.5M700.16,574.3c-4.47-5.39-8.95-10.79-13.61-16.41-5.23,6.75-9.88,12.76-14.77,19.07,19.36,16.15,38.81,31.45,60.85,43.33-8.97-16.44-20.14-31.18-32.47-45.99Z"/><path class="cls-72" d="M304.51,0c-4.11.67-8.72,1.17-13.26,2.03-17.18,3.25-34.49,6.02-51.48,10.11-21.59,5.19-42.06,13.72-61.59,24.29-16.87,9.13-32.97,19.51-47.39,32.28-6.66,5.9-13.68,11.46-19.76,17.91-17.25,18.31-32.31,38.19-44.24,60.54-11.74,21.99-20.17,45.08-25.38,69.29-2.46,11.44-3.71,23.26-4.26,34.96-.71,14.96-.48,29.99-.1,44.98.55,22.09,2.29,44.12,8.1,65.52,2.4,8.86,5.78,18.03,14.42,22.77,11.82,6.49,23.57,13.42,37.02,16.31,15.49,3.34,30.97,6.76,46.49,9.96,6.98,1.44,14.06,2.41,21.61,4.1,1.46,2.98,2.42,5.46,3.36,8.31.98,3.12,1.96,5.88,2.93,9.02,1.01,3.8,2.04,7.2,3.05,11.01,1,4.47,2.02,8.54,2.99,13.01.75,4.19,1.55,7.98,2.36,12.2.61,4.09,1.22,7.75,1.79,11.8.47,3.83.99,7.27,1.44,11.1.14,3.77.34,7.13.47,10.93-.42,3.25-.78,6.06-1.5,8.83-4.78-6.45-9.19-12.86-13.65-19.62-5.28-7.28-10.5-14.22-15.82-21.47-5.72-6.4-11.33-12.5-17.06-18.89-5.71-5.32-11.31-10.34-17.04-15.68-4.34-3.46-8.53-6.6-12.89-10.05-4.47-3.11-8.77-5.92-13.25-9.02-3.33-2.08-6.48-3.87-9.84-5.95-3.8-2.06-7.4-3.84-11.22-5.89-4.73-2.18-9.23-4.09-13.97-6.25-4.44-1.67-8.63-3.09-13.08-4.77-5.76-1.73-11.27-3.2-17.09-4.87-5.76-1.28-11.2-2.37-16.64-3.45-.05.37-.1.75-.16,1.12,5.02,2.88,10.04,5.77,15.23,8.94,4.35,3.08,8.53,5.87,12.87,8.95,3.78,3.07,7.39,5.86,11.14,8.94,3.37,3.12,6.61,5.93,9.98,9.04,2.49,2.51,4.84,4.72,7.36,7.24,3.15,3.39,6.13,6.48,9.25,9.88,3.1,3.74,6.07,7.17,9.14,10.92,3.73,5.11,7.35,9.88,11.05,14.99,4.7,7.57,9.31,14.8,13.98,22.37,4.01,7.78,7.96,15.22,11.94,23.02.8,2.18,1.66,3.96,2.31,5.83,2.02,5.79,3.95,11.61,5.59,17.35-2.09-2.38-3.85-4.7-5.7-7.34-2.09-2.75-4.09-5.18-6.19-7.91-1.74-2.1-3.38-3.88-5.13-5.98-21.48-22.5-46.39-38.41-77.15-44.03.91,1.27,2.07,2.11,3.26,2.92,17.16,11.79,32.06,25.91,44.02,43.02,3.51,5.03,6.74,10.26,10.14,15.74,1.28,2.48,2.51,4.61,3.82,7.1,1.48,3.07,2.88,5.8,4.3,8.88,1.6,3.81,3.18,7.25,4.79,11.07,1.38,3.78,2.72,7.19,4.07,10.98,1.28,4.29,2.55,8.2,3.91,12.45.98,3.18,1.86,6.01,2.74,9.23,1.06,5.35,2.14,10.31,3.18,15.65.72,6.01,1.48,11.64,2.16,17.7-.44,3.15-.8,5.86-1.13,8.21-.98-3.13-1.98-5.88-2.98-8.99-1.31-3.12-2.62-5.88-3.88-8.99-1.4-3.11-2.84-5.87-4.39-8.93-2.26-3.44-4.41-6.56-6.64-10.02-1.87-2.39-3.65-4.45-5.57-6.8-3.99-3.27-7.6-6.65-11.75-9.13-7.03-4.18-14.36-7.88-21.67-11.57-1.64-.83-3.72-.8-5.6-1.17,11.5,9.69,22.38,19.22,29.57,32.61,1.34,2.81,2.63,5.28,3.97,8.11,1.24,3.37,2.43,6.4,3.7,9.8,1.05,3.46,2.01,6.54,3.02,10.02.77,3.41,1.49,6.42,2.19,9.87.44,3.48.89,6.53,1.29,10.02.25,4.15.55,7.85.73,11.97-.01,2.14.1,3.86.21,5.58H0V0c101.33,0,202.69,0,304.51,0Z"/><path class="cls-78" d="M227.98,664c-20.02,0-40.04,0-60.53-.46-.46-3.82-.46-7.18-.07-10.59,2.78-.06,5.28-.54,7.54,0,5.6,1.34,11.05,3.3,16.64,4.69,2.86.71,6.21,1.39,6.42-3.43.29-6.74.65-13.48.99-20.68.66-7.15,1.32-13.85,1.99-20.79.01-.25.02-.74.38-.7,1.65.72,3.1,1.21,4.22,2.12,8.51,6.91,16.96,13.89,25.43,21.27-.66,4.47-1.31,8.51-2.03,12.97-.37,5.48-.67,10.54-.97,15.6Z"/><path class="cls-78" d="M416.98,664c-17.69,0-35.38,0-53.53-.47-1.13-7.49-1.8-14.51-2.47-21.94-.33-2.8-.65-5.19-.62-7.63,5.85-4.93,11.29-9.91,16.9-14.68,3.08-2.61,6.46-4.87,9.72-7.03,0,.25.02.74.02,1.16.67,7.14,1.33,13.86,1.99,21.03.33,6.68.56,12.92,1.05,19.14.27,3.44,1.88,4.94,5.7,3.68,7.02-2.3,14.17-4.2,21.26-5.8,0,4.49-.01,8.51-.02,12.54Z"/><path class="cls-81" d="M474.98,664c-1.71,0-3.43,0-5.58-.37-2.68-6.37-10.44-13.48-13.87-12.84-.66,2.68-1.3,5.3-2.12,8.64-1.83-1.3-3.18-1.94-4.12-2.97-8.22-9.03-16.33-18.16-24.59-27.16-1.27-1.39-3.13-2.23-4.72-3.75,1.31-7.81,2.63-15.2,3.97-22.83.05-.42.07-.59.44-.74.84.12,1.51.04,1.78.34,6.09,6.77,12,13.71,18.26,20.32,3.83,4.05,8.19,7.59,12.41,11.62.35.7.62,1.14,1.24,1.65,4.07,3.5,7.77,6.94,11.49,10.36,1.74,1.6,3.53,3.14,5.42,5.16.07,4.48.03,8.52-.02,12.56Z"/><path class="cls-83" d="M103.45,664c-.58-1.72-.69-3.44-.33-5.61,6.63-5.65,12.79-10.85,19.16-16.24,1.17,1.24,2.35,2.5,4.17,4.43,10.41-10.26,20.54-20.3,30.76-30.25,1.37-1.33,3.16-2.24,4.92-2.98,1.06,4.79,1.96,9.22,2.85,14.08.01,2.48.02,4.52-.31,6.59-1.29.67-2.33,1.2-3.15,1.96-5.68,5.28-11.51,10.42-16.89,15.99-3.56,3.68-6.46,7.99-9.65,12.01h-31.53Z"/><path class="cls-93" d="M419.99,625.99c1.59,1.09,3.45,1.94,4.72,3.33,8.26,9,16.37,18.13,24.59,27.16.93,1.03,2.29,1.67,4.12,2.97.82-3.34,1.46-5.97,2.12-8.64,3.43-.64,11.19,6.47,13.44,12.84-17.02.37-34.04.37-51.53.37-.46-4.02-.46-8.05-.16-12.83.76-8.56,1.23-16.36,1.91-24.28.49-.31.68-.58.79-.9Z"/><path class="cls-87" d="M583.64,657.98c.09,1.72.18,3.44.3,5.59-6.66.43-13.34.43-20.53.08-1.59-1.5-2.58-2.77-3.78-3.8-6.19-5.32-12.43-10.58-18.65-16.28.99-4.14,1.98-7.86,3.32-11.54,2.01,1.06,3.73,2,5.32,3.12,10.56,7.44,21.08,14.94,31.66,22.35.6.42,1.57.33,2.37.47Z"/><path class="cls-90" d="M135.45,664c2.73-4.03,5.63-8.34,9.18-12.01,5.39-5.57,11.21-10.71,16.89-15.99.82-.76,1.86-1.29,3.43-1.67,1.1,6.4,1.57,12.54,2.04,18.69,0,3.36,0,6.72-.01,10.54-10.36.46-20.71.46-31.53.46Z"/><path class="cls-78" d="M517.98,664c-7.02,0-14.04,0-21.54-.44-1.15-4.48-1.82-8.53-2.49-12.95-.05-1.11-.09-1.85.19-2.72,3.53-2.2,6.64-4.43,9.94-6.32,3.53-2.02,7.25-3.73,10.89-5.16.68,4.14,1.34,7.86,2,12.05.33,5.49.67,10.51,1,15.53Z"/><path class="cls-44" d="M262.98,664c-1.71,0-3.43,0-5.48-.4-.43-1.48-.52-2.56-.26-3.65,3.83-2.96,7.31-5.89,11.04-9.05.38-1.11.49-2,.92-3.02,6.18-5.07,12.04-9.99,18.17-14.7.72,1.76,1.19,3.29,1.77,5.14.69,2.11,1.25,3.89,1.47,5.71-4.23,3.3-8,6.71-12.03,9.78-2.88,2.19-5.91,4.97-9.23,5.58-3.35.61-5.5,1.29-6.38,4.61Z"/><path class="cls-80" d="M518.38,664c-.73-5.02-1.07-10.05-.98-15.53,1.88-.66,3.35-.79,4.79-1.06,5.93-1.11,11.86-2.27,17.79-2.97-.34,5.15-.68,9.86-1.46,14.57-6.21.34-12.12.27-16.54,4.99h-3.6Z"/><path class="cls-81" d="M229.02,647.99c.65-4.05,1.3-8.09,2.2-12.57.25-.43.73-.43,1.08-.39,3.16,2.55,5.9,5.15,8.81,7.55,3.13,2.58,6.43,4.97,9.7,7.87-.25,4.8-.54,9.18-.83,13.55-1.39,0-2.78,0-4.62-.34-5.75-5.45-11.05-10.56-16.34-15.67Z"/><path class="cls-83" d="M263.45,664c.41-3.32,2.56-4,5.91-4.61,3.31-.61,6.35-3.39,9.23-5.58,4.03-3.07,7.8-6.48,12.04-9.39.7,2.44,1.04,4.51,1.42,7,.34,4.47.64,8.52.93,12.58h-29.53Z"/><path class="cls-78" d="M327.98,664c-5.35,0-10.71,0-16.53-.45-.47-3.49-.47-6.52-.47-9.97.34-3.47.67-6.52,1.11-9.79.3-.49.55-.69,1.24-.79,5.49,3.7,10.61,7.39,15.72,11.5-.36,3.45-.71,6.48-1.06,9.51Z"/><path class="cls-83" d="M360.99,642c.67,7.02,1.33,14.05,1.99,21.54-6.36.47-12.71.47-19.51.04-.39-2.14-.34-3.85.04-5.61,4.07-3.74,7.75-7.48,11.56-11.09,1.85-1.75,3.93-3.26,5.91-4.88Z"/><path class="cls-92" d="M538.95,659.01c.34-4.71.68-9.42,1.27-14.57.25-.44.75-.44.75-.44,6.22,5.28,12.47,10.54,18.66,15.86,1.2,1.03,2.19,2.3,3.31,3.8-7.65.35-15.34.35-23.5-.07-.48-1.8-.49-3.19-.49-4.57Z"/><path class="cls-80" d="M310.97,653.99c0,3.03,0,6.07,0,9.55-5.69.45-11.38.45-17.53.45-.76-4.06-1.06-8.11-.95-12.58,6.42.58,12.45,1.58,18.48,2.57Z"/><path class="cls-93" d="M228.95,648.4c5.37,4.69,10.67,9.8,16,15.26-5.32.34-10.68.34-16.5.34-.17-5.06.13-10.12.5-15.6Z"/><path class="cls-83" d="M493.95,650.99c.67,4.05,1.35,8.09,2.03,12.58-5.02.44-10.04.44-15.51.02-.39-1.8-.34-3.18.07-4.58,1.47-.59,2.64-1.1,3.7-1.77,3.26-2.05,6.48-4.16,9.71-6.25Z"/><path class="cls-74" d="M250.42,664c-.15-4.37.15-8.75.49-13.95.21-2.71.37-4.6.82-6.54.92.82,1.56,1.71,2.15,2.93.65,2.4,1.35,4.47,1.96,6.93.29,2.46.67,4.53,1.05,6.59.09,1.08.18,2.16.18,3.64-2.13.4-4.17.4-6.65.4Z"/><path class="cls-43" d="M328.44,664c-.11-3.03.24-6.06.84-9.68.71-1.19,1.18-1.78,1.8-2.08,3.2,2.83,6.24,5.35,9.3,8.27-.12,1.42-.26,2.45-.4,3.49h-11.54Z"/><path class="cls-53" d="M480.18,659.02c-.05,1.38-.1,2.77-.18,4.57-1.41.42-2.8.42-4.61.42-.37-4.04-.32-8.07-.34-12.9.29-1.83.65-2.87,1.37-3.97,1.15,1.26,1.95,2.57,2.72,4.28.33,2.8.68,5.2,1.04,7.6Z"/><path class="cls-78" d="M538.52,659.01c.44,1.39.45,2.77.46,4.58-5.35.42-10.71.42-16.53.42,3.95-4.73,9.86-4.65,16.07-4.99Z"/><path class="cls-53" d="M340.35,664c-.23-1.03-.09-2.06.26-3.77.51-2.85.8-5.03,1.23-7.48.41-.97.69-1.67.99-1.95.13,2.68.24,4.95.35,7.21-.05,1.71-.1,3.42-.18,5.56-.77.43-1.52.43-2.65.43Z"/><path class="cls-68" d="M546.48,102.15c5.83,6.29,12.13,12.2,17.4,18.93,25.9,33.06,42,70.47,47.73,112.07,1.72,12.47,1.5,25.2,1.85,38.08-12.03-11.87-28.86-14.49-42.64-6.32-14.21,8.42-20.03,24.69-14.71,41.09-11.12,10.48-22.18,21.03-33.43,31.37-1.24,1.14-3.6,1.72-5.35,1.55-20.35-1.99-40.66-4.41-61.03-6.23-14.57-1.3-29.2-2.33-43.83-2.66-36.94-.82-73.91-2.09-110.84-1.45-33.56.58-67.17,2.5-100.6,5.56-29.42,2.69-58.69,7.33-87.88,12.01-15.89,2.54-31.51,6.87-46.46,16.43-1.92-8.61-4.24-16.55-5.4-24.66-3.82-26.75-5.14-53.74-4-80.68,2.12-49.87,19.4-94.42,49.75-133.97,15.63-20.38,34.08-37.79,55.73-52.2,1.12,1.39,1.6,2.65,2.31,3.76,5.49,8.55,13.52,12.15,23.4,11.04,9.13-1.02,15.95-5.96,19.08-14.69,3.06-8.56,1.1-16.36-5.63-22.73,11.04-4.49,21.87-9.61,33.16-13.35,26.65-8.84,54.16-13.14,82.22-14.46,52.43-2.47,103.1,4.87,151.31,26.38,22.16,9.89,42.52,22.7,60.73,38.72-6.75-.36-12.88.42-18.43,4.05-7.25,4.73-9.69,12.81-5.98,19.81,3.91,7.38,14.5,11.75,24.22,10.01,10.66-1.91,16.17-7.46,17.32-17.44M556.56,192.97c-11.18-15.76-26.32-23.98-45.76-23.97-29.76.01-53.81,24.08-53.99,54-.18,30.19,23.71,54.87,53.59,54.94,21.22.05,37.8-9.17,48.21-27.58,10.7-18.92,9.77-38.18-2.05-57.4M207.74,206.97c6.45.31,13.02,1.56,19.33.75,22.42-2.9,38.77-20.82,41.52-44.56,2.38-20.53-10.79-41.59-31.09-49.7-20.15-8.05-44.2-1.25-57.21,16.18-20.92,28.02-7.73,66.25,27.44,77.34M360.55,247.95c-12.19-12.05-28.82-14.23-42.84-5.6-13.15,8.09-19.22,24.84-14.05,39.6,4.73,13.51,14.51,21.3,28.64,22.9,14.36,1.63,27.55-5.64,33.7-18.34,6.59-13.62,4.75-26.41-5.44-38.56M416.63,58.77c-16.93-11.65-38.15-7.83-48.93,8.81-10.2,15.75-5.38,37.27,10.59,47.21,15.04,9.36,35.03,5.51,45.38-8.73,10.81-14.88,8.14-34.31-7.04-47.29M98.02,291.55c.97.63,1.91,1.33,2.93,1.89,9.8,5.36,22.1,3.67,29.92-4.08,7.7-7.63,9.65-19.84,4.71-29.46-5.09-9.91-16.02-15.25-27.16-13.05-10.04,1.99-16.65,8.07-19.39,17.86-2.93,10.48.26,19.29,8.99,26.84M201.55,254.98c-3.69,1.79-7.89,2.95-10.96,5.48-7.17,5.94-6.87,16.12.07,22.28,8.16,7.25,22.97,7.67,31.48.88,8.82-7.04,8.5-18.36-.76-24.86-5.75-4.04-12.18-4.99-19.83-3.79M359.58,184.96c4.62-7.63,3.8-14.56-2.4-20.18-8.59-7.77-24.7-7.48-32.98.6-6.3,6.15-6.36,15.06-.13,21.31,9.07,9.11,25.3,8.56,35.52-1.73M453.9,321.88c6.7.61,12.93-.7,18.34-4.84,8.15-6.24,8.41-16.97.68-23.64-8.58-7.4-23.86-7.25-32.23.3-7.11,6.43-7.26,16.69.32,22.54,3.41,2.63,7.98,3.74,12.88,5.64M292.44,54.89c-8.55-4.2-17.09-4.1-25.25.79-11.1,6.65-11.09,20.06-.05,26.78,6.95,4.23,14.49,4.75,22.1,2.16,6.5-2.2,11.54-6.26,12.63-13.45,1.11-7.33-2.72-12.36-9.43-16.27M142.55,167.06c-8.98-9.25-23.05-10.66-33.1-3.32-8.91,6.5-9.1,17.78-.42,24.57,7.81,6.11,20.81,6.52,29.09.91,8.03-5.43,9.74-13.02,4.43-22.16Z"/><path class="cls-67" d="M584.01,428.06c-13.69-10.25-27.39-20.5-41.2-31.25,3.09-2.88,6.3-5.26,9.51-7.64-.25-.53-.5-1.06-.74-1.59-5.83,1.41-11.65,2.82-17.48,4.23-6.52-3.55-13.05-7.09-20.36-11.07,21.23-28.15,43.49-55.21,76.94-70.54,1.65,11.07,8.08,18.14,17.23,18.62,7.26.38,13.02-2.58,16.57-8.87,4.11-7.27,3.68-14.56-1.24-21.45,29.76-7,59.44-5.74,87.8,4.99,63.63,24.06,107.09,68.62,128.81,133.28,8.73,25.98,9.41,52.84,2.72,79.87-8.09-13-21.62-18.94-35.49-15.24-13.31,3.55-22.52,15.52-22.64,29.43-.12,13.89,8.77,26.27,22.31,29.51,5.47,1.31,11.46.45,17.22.58-.79,1.9-1.32,3.96-2.42,5.66-10.7,16.5-25.14,29.54-39.71,42.42-7.04,6.22-14.61,11.85-22.58,18.26-9.31-22.99-23.95-41.24-37.95-60.22,8.45-1.85,13.85-6.54,15.5-14.7,1.5-7.45-1-13.75-7.28-18.26-8.09-5.8-22.64-4.33-27.66,10-10.67-11.59-21-23.51-32.07-34.7-18.68-18.86-37.83-37.26-56.61-56.32,11-2.92,15.64-10.32,12.95-21.13-2.38-9.56-8.54-16.08-17.47-19.68-11.88-4.8-24.85-.14-24.66,15.8M668.82,389.83c.83,0,1.66.01,2.5,0,15.78-.13,28.03-11.25,30.3-27.5,1.92-13.71-7.52-28.09-21.22-32.31-14.75-4.55-30.25,2.16-36.9,15.92-8.84,18.29,2.27,41.26,25.32,43.9M680.71,439.17c-1.47.27-2.96.46-4.41.83-11.36,2.91-18.53,14.69-15.99,26.2,2.57,11.65,13.94,19.34,25.41,17.18,11.95-2.25,19.11-11.59,18.39-24.02-.66-11.35-9.82-19.56-23.41-20.19M797.41,415.97c8.2-8.81,7.95-20.99-.58-28.18-8.57-7.22-21.02-5.69-27.65,3.4-5.21,7.14-4.36,17.88,1.9,24.27,6.84,6.97,16.78,7.37,26.33.51M757.04,443.05c-.95.29-1.93.51-2.85.88-6.95,2.82-10.96,7.9-11.49,15.45-.5,7.08,2.27,12.74,8.29,16.44,6.37,3.91,12.98,3.72,19.31-.23,6.7-4.17,9.65-12.97,7.13-20.62-2.71-8.2-9.56-12.42-20.4-11.93M587.66,367.71c2.48-11.11-5.18-19.98-14.75-20.69-8.8-.65-16.12,5.33-17.59,14.26-1.31,7.93,4.08,15.87,12.29,18.1,8.36,2.28,16.15-2.03,20.05-11.67M742.83,338.45c-1.21-8.2-7.04-13.66-14.56-13.63-6.12.02-9.57,4.5-7.7,10.35,1.94,6.06,6.22,9.78,12.52,10.79,5.39.87,8.14-1.16,9.74-7.51M716.81,419.87c7.26,1.47,11.49-.52,12.56-5.91,1-5.06-2.35-10.6-7.59-12.55-4.42-1.64-9.44-.21-11.48,3.28-2.52,4.31-1.03,9.79,3.73,13.56.64.51,1.4.88,2.79,1.62M554.65,387.45l.37.05s-.22-.08-.37-.05Z"/><path class="cls-70" d="M233.31,491.6c2.21-17.45,4.44-34.9,6.63-52.36,2.15-17.13,4.23-34.26,6.39-51.39,1.55-12.34,3.18-24.67,4.81-37.33,43.39-2.27,86.63-2.56,130.42-1.05,1.18,6.2,1.85,11.94,2.46,17.68,2.07,19.39,4.12,38.77,6.12,58.5-1.05,2.69-2.05,5.03-3.3,7.61-2.05,4.4-3.85,8.57-5.9,13.01-1.79,4.42-3.33,8.57-5.13,12.98-1.46,4.09-2.65,7.91-4.1,11.98-1.12,3.4-1.98,6.55-3.1,9.96-1.41,4.76-2.57,9.27-3.93,13.89-.46.34-.64.61-1.08.86-5.3-3.45-10.25-6.82-15.38-10.49-9.82-6.76-19.61-12.86-32.35-13.73,7.21,6.83,13.69,12.96,20.29,19.42,3.34,3.84,6.56,7.37,9.87,11.22,2.34,3.5,4.6,6.66,6.9,10.17,1.95,3.4,3.86,6.47,5.76,9.89.06,1.07.12,1.77,0,2.76-.26,1.12-.35,1.97-.57,3.22-.48,3.45-.83,6.49-1.53,9.67-3.04-1.97-5.72-4.08-8.48-6.52-2.53-2.74-4.99-5.14-7.53-7.85-3.82-3.4-7.56-6.48-11.44-9.84-3.29-2.22-6.43-4.17-9.74-6.4-1.48-1.08-2.79-1.88-4.24-2.93-.84-.46-1.55-.65-2.47-1.08-.59-.39-.97-.54-1.56-1.02-1.16-1.08-2.11-1.83-3.29-2.77,2.41-1.42,4.27-2.52,6.14-3.63-.08-.66-.17-1.32-.25-1.97-10.32,3.99-20.32,3.13-30.08-1.4-.13.43-.26.87-.38,1.3,2.63,1.81,5.26,3.62,8.03,5.52-1.02.82-1.9,1.53-3.13,2.23-4.1,2.03-7.85,4.06-11.91,6.1-1.33.67-2.34,1.32-3.71,2.04-4.57,3.03-8.8,5.99-13.34,9.02-3.14,2.43-5.95,4.79-9.07,7.33-4.29,4.05-8.26,7.93-12.58,11.8-1.15-.32-1.96-.64-2.72-1.37-.67-4.81-1.39-9.2-1.95-13.91,2.56-4.09,4.96-7.87,7.65-11.8,2.68-3.39,5.08-6.63,7.78-9.99,3.79-4,7.27-7.86,11.11-11.75,8.45-6.41,16.55-12.78,24.57-19.18-.07-.03.16-.08.16-.08,0,0-.14.19-.56.21-15.1,2.75-28.81,7.87-41.32,16.76-2.65,1.63-4.96,3.21-7.7,4.73-.71-.05-1-.04-1.28-.02Z"/><path class="cls-55" d="M551.98,503.03c11.72-8.93,23.44-17.86,35.16-26.8,3.55-2.71,7.07-5.47,11.28-8.75,13.79,13.31,27.59,26.63,41.22,40.42-3.35,1.32-6.52,2.18-10.09,3.04-4.5,1.18-8.59,2.35-13.09,3.58-4.1,1.5-7.81,2.96-11.88,4.42-4.17,1.84-7.97,3.68-12.13,5.62-3.05,1.59-5.74,3.08-8.78,4.61-3.15,1.93-5.95,3.8-9.1,5.75-4.13,2.98-7.93,5.87-12.04,8.9-4.69,4.16-9.06,8.2-13.74,12.37-3.93,4.32-7.55,8.5-11.46,12.82-2.25,2.59-4.21,5.04-6.29,7.15-1.46-1.62-2.81-2.9-4.22-4.59-.02-1.8.02-3.18.23-4.92.69-3.79,1.21-7.22,1.89-10.99.52-2.3.9-4.25,1.52-6.49,1.09-3.56,1.93-6.82,3-10.35.72-2.7,1.2-5.12,2.04-7.61,1.09-1.49,1.79-2.93,2.57-4.32,4.22-7.57,8.46-15.13,12.98-22.81.52-.44.75-.76.95-1.08-.02,0-.02.04-.02.04Z"/><path class="cls-66" d="M642.89,510.27c4.98,5.32,9.95,10.65,14.9,16.59-12.37,15.95-24.61,31.38-37.1,46.59-7.04,8.57-14.19,17.08-21.89,25.04-4.96,5.13-11.09,9.03-18.87,8.16,1.25-3.07,2.5-5.76,3.97-8.67,1.94-3.09,3.66-5.97,5.64-9.04,11.12-12.97,23.19-24.39,37.61-33.24-19.32,3.54-36.36,11.38-50.72,25.23-3.06,2.36-5.77,4.72-8.77,7.21-1.09.44-1.89.74-2.99.89,1.96-4.42,4.22-8.7,6.76-13.15,3.12-4.71,5.97-9.24,9.1-13.93,2.69-3.39,5.09-6.61,7.8-9.99,2.46-2.65,4.62-5.15,7.1-7.77,2.39-2.24,4.47-4.35,6.85-6.59,3.43-2.96,6.56-5.81,10.01-8.75,3.14-2.29,5.95-4.48,9.11-6.75,3.75-2.44,7.16-4.81,10.94-7.11,3.76-1.52,7.16-3.11,10.57-4.7Z"/><path class="cls-61" d="M579.91,607.02c7.8.49,13.92-3.41,18.88-8.54,7.7-7.96,14.85-16.47,21.89-25.04,12.5-15.21,24.73-30.64,37.23-46.28,4.97,4.69,9.79,9.69,14.94,15.03-5.71,7.34-11.19,14.38-16.67,21.43-17.46,22.45-34.92,44.89-52.37,67.36-4.2,5.41-9.42,9.3-16.35,10.93-.07-1.17.16-2.06.65-3.18,1.17-2.38,2.09-4.53,3.26-6.83.72-1.05,1.18-1.94,1.91-3.01,5.42-6.1,10.57-12.01,15.97-18.22-8.79,1.86-15.86,6.54-22.65,12.41-1.21,1.33-2.1,2.55-3.28,3.93-1.44,1.7-2.6,3.24-4.02,4.99-1.92,3.13-3.58,6.07-5.4,9.3-1.34,1.03-2.52,1.76-3.81,2.09.15-3.39.41-6.38.87-9.71,1.14-4.45,2.08-8.56,3.29-12.91,1.42-3.75,2.57-7.25,3.97-10.93.73-1.06,1.2-1.94,1.68-2.82Z"/><path class="cls-8" d="M146.55,360.29c17.58-2.05,35.15-4.26,52.75-6.1,9.98-1.05,20.03-1.5,30.73-2.27-.87,7.39-1.62,14.06-2.45,20.72-.83,6.73-1.95,13.42-2.54,20.17-.62,7.19-1.67,7.85-8.99,6.82-10.64-1.5-21.36-2.47-32.06-3.57-1.25-.13-2.56.37-4.37.69-6.95-7.45-13.3-15.09-19.86-22.52-4.23-4.8-8.8-9.3-13.22-13.93Z"/><path class="cls-59" d="M823.98,560.95c-5.76-.16-11.75.7-17.23-.61-13.54-3.23-22.43-15.61-22.31-29.51.12-13.91,9.32-25.88,22.64-29.43,13.87-3.7,27.4,2.24,35.37,15.65-3.03,15.29-8.68,29.4-17.2,42.83-.81.53-1.07.81-1.33,1.09,0,0,.06.01.06-.02Z"/><path class="cls-8" d="M441.83,355.07c-1.6-2.62-.6-3,2.05-2.79,9.04.71,18.1,1.05,27.13,1.82,9.22.79,18.42,1.91,27.62,2.95,1.8.2,3.56.73,5.73,1.19-6.38,11.7-17.13,21.93-11.59,37.51-9.96,1.11-19.61,2.21-29.28,3.24-3.95.42-7.94.52-11.86,1.08-3.73.53-5.15-1.33-5.53-4.56-1.07-9.19-2.05-18.4-3.19-27.59-.2-1.58-.97-3.1-1.75-5.24.04-2.94.34-5.28.65-7.62Z"/><path class="cls-76" d="M508.07,428.81c9.09,12.7,18.17,25.4,27.21,38.55-.22.6-.39.75-.75.96-.47.19-.62.41-.59.69.03-.02.08-.06-.33-.14-3.27.63-6.2,1.13-8.98,2.05-23.56,7.84-42.44,22.3-58.4,41.43-1.55,1.63-2.83,3.07-4.14,4.09-.73-3.81-1.42-7.19-2.05-10.93,1.42-3.38,2.79-6.41,4.44-9.65,2.72-5.35,5.16-10.49,7.9-15.83,3.12-5.33,5.94-10.45,9.07-15.77,3.49-5.18,6.69-10.16,10.16-15.31,3.16-4.04,6.05-7.91,9.19-11.97,2.59-2.86,4.94-5.52,7.28-8.19Z"/><path class="cls-75" d="M425.87,395.96c2.82,22.23,5.64,44.47,8.69,67.3-2.13,4.61-4.49,8.63-7.13,12.82-3.96,6.09-7.63,12.01-11.44,18.26-4.15,7.42-8.15,14.52-12.42,21.7-.68.4-1.09.72-1.54.76-.34-.46-.65-.64-.99-1.28-.09-4.47-.14-8.48-.1-12.93.36-4.14.62-7.86.98-11.96.76-4.13,1.43-7.87,2.24-12,.39-3.12.65-5.85,1.16-8.87.93-4.77,1.61-9.25,2.48-14.09.89-4.11,1.6-7.86,2.54-11.9,1.09-4.09,1.94-7.89,3.03-11.96,1.04-3.44,1.83-6.61,2.88-10.04,3.38-8.77,6.5-17.28,9.62-25.79Z"/><path class="cls-73" d="M390.2,425.32c-2.06-19.39-4.11-38.78-6.17-58.16-.61-5.74-1.28-11.48-2-17.61,11.53-.01,23.12.44,34.73.71,3.07.07,3.84,1.62,4.12,4.27.65,6.27,1.51,12.52,2.2,19.51-1.31,2.5-2.63,4.21-3.78,6.03-9.33,14.64-18.62,29.29-28.1,44.19-.44.52-.72.79-.99,1.07Z"/><path class="cls-71" d="M556.43,305.92c-5.65-16.33.18-32.6,14.39-41.02,13.78-8.17,30.61-5.55,42.56,6.78.74,7.61.75,7.64-6.44,9.78-18.06,5.38-34.76,13.56-50.5,24.46Z"/><path class="cls-19" d="M146.24,360.19c4.73,4.74,9.29,9.24,13.53,14.04,6.57,7.44,12.91,15.08,19.58,22.86,4.81,7.04,9.39,13.86,14.33,21.18,1.47,2.54,2.57,4.58,3.2,6.64-9.92-.62-19.37-1.26-28.82-1.91-.95-2.48-1.91-4.96-3-7.78-2.88-7.49-5.63-14.63-8.67-22.4-5.94-11.11-11.58-21.6-17.22-32.09-1.09-2.34-2.19-4.69-3.23-7.38.05-.35.02-.31.02-.31,3.33,2.35,6.65,4.7,10.29,7.15Z"/><path class="cls-62" d="M584.22,428.31c-.4-16.2,12.57-20.85,24.45-16.05,8.93,3.6,15.09,10.11,17.47,19.68,2.69,10.8-1.94,18.21-13.12,20.82-9.77-7.95-19.18-16.07-28.8-24.45Z"/><path class="cls-62" d="M546.28,101.9c-.94,10.23-6.45,15.78-17.11,17.7-9.72,1.74-20.31-2.63-24.22-10.01-3.71-6.99-1.27-15.07,5.98-19.81,5.55-3.62,11.69-4.41,18.58-3.75,5.83,5.19,11.2,10.4,16.78,15.86Z"/><path class="cls-21" d="M700.36,574.59c12.13,14.51,23.3,29.26,32.27,45.7-22.04-11.88-41.5-27.18-60.85-43.33,4.88-6.31,9.54-12.32,14.77-19.07,4.66,5.62,9.14,11.02,13.82,16.7Z"/><path class="cls-71" d="M201.54,48.39c7.13,6.43,9.09,14.23,6.03,22.79-3.13,8.73-9.95,13.66-19.08,14.69-9.89,1.11-17.91-2.5-23.4-11.04-.71-1.11-1.19-2.37-1.97-3.88,12.54-7.75,25.29-15.18,38.43-22.55Z"/><path class="cls-8" d="M138.91,361.05c5.89,10.17,11.53,20.66,17.25,31.51-11.24-1.95-22.63-3.95-33.85-6.67-10.93-2.65-21.68-6.01-32.5-9.11-.89-.26-1.67-.91-3.83-2.13,6.74-2.13,12.22-4.22,17.88-5.58,11.55-2.78,23.19-5.16,35.05-8.03Z"/><path class="cls-21" d="M527.08,409.07c1.05,1.35,1.87,3,3.18,4.02,16.5,12.84,33.07,25.59,49.6,38.38.64.5,1.14,1.18,2.17,2.27-6.07,4.81-11.98,9.49-18.65,14.77-5.49-6.82-11.11-13.29-16.14-20.19-7.93-10.85-15.47-22-23.21-33-.36-.51-.97-.83-1.73-1.59-.13-.74,0-1.13.43-1.6,1.64-1.08,3-2.06,4.36-3.05Z"/><path class="cls-4" d="M391.36,424.01c9.31-14.65,18.6-29.31,27.93-43.95,1.15-1.81,2.47-3.53,3.85-5.58,6.25-6.47,12.36-12.64,18.57-19.12-.2,2.04-.5,4.38-.86,7.07-4.97,11.17-9.89,21.99-14.9,33.16-3.21,8.87-6.34,17.38-10.18,26.14-8.62.93-16.52,1.6-24.42,2.27Z"/><path class="cls-76" d="M535.51,467.63c3.81,4.34,7.36,8.88,10.7,13.17-19.78,17.92-42.89,30.66-61.27,50.06-.97,0-1.23-.01-1.34-.36,11.59-23.72,27.74-43.24,48.33-59.14.82-.64,1.4-1.59,2.09-2.4,0,0-.05.04.15.11.4-.2.51-.49.55-.81.17-.14.34-.28.78-.62Z"/><path class="cls-71" d="M702,544.39c4.89-14.64,19.45-16.11,27.53-10.31,6.29,4.51,8.79,10.82,7.28,18.26-1.65,8.16-7.05,12.85-15.63,14.37-6.59-7.24-12.83-14.63-19.19-22.33Z"/><path class="cls-62" d="M622.88,298.5c5.28,6.89,5.71,14.19,1.6,21.46-3.56,6.28-9.31,9.25-16.57,8.87-9.15-.48-15.58-7.55-16.87-18.71,10.45-4.15,20.96-7.89,31.84-11.62Z"/><path class="cls-88" d="M427.71,475.91c2.36-4.02,4.72-8.04,7.17-12.38,1.55-1.3,3.01-2.28,4.92-3.12,5.94,8.78,11.34,17.46,16.96,26,2.23,3.39,4.95,6.46,7.45,9.67-1.37,3.03-2.74,6.06-4.5,9.51-1.17,1.74-1.94,3.08-3.07,4.37-1.95-1.38-3.93-2.45-5.06-4.1-5.87-8.56-11.57-17.25-17.22-25.95-1.62-2.49-3.29-4.56-6.65-4.01Z"/><path class="cls-43" d="M464.48,495.88c-2.77-3.01-5.49-6.08-7.72-9.47-5.62-8.54-11.02-17.22-16.67-26.16,3.66-4.86,7.47-9.4,11.58-13.69.84,2.09.98,4.18,1.97,5.72,6.04,9.4,12.27,18.67,18.44,27.98-2.44,5.14-4.89,10.28-7.61,15.63Z"/><path class="cls-29" d="M472.38,480.05c-6.46-9.11-12.69-18.38-18.73-27.78-.99-1.54-1.13-3.63-1.67-5.86.33-1.2.67-1.99,1.34-3.22,3.35-3.27,6.36-6.11,9.49-8.58,3.84,6.25,7.58,12.11,11.25,18.02,2.42,3.91,4.73,7.9,7.09,11.85-2.83,5.12-5.65,10.24-8.77,15.57Z"/><path class="cls-76" d="M197.35,424.88c-1.11-2.03-2.21-4.07-3.38-6.44,4.62.29,9.3,1,14.01,1.53,4.2.47,8.43.72,13.22,1.12-1.79,13.55-3.53,26.72-5.58,40.21-.78-.55-1.24-1.42-1.7-2.65-1.92-4.48-3.83-8.59-5.79-13.07-1.99-4.13-3.93-7.9-5.95-12.02-1.65-3.12-3.23-5.9-4.82-8.67Z"/><path class="cls-19" d="M550.76,504.18c-4.23,7.56-8.47,15.12-12.69,22.7-.78,1.4-1.48,2.84-2.81,4-6.61-.15-12.62-.05-18.63.06,8.61-14,20.2-25.28,32.83-35.54,3.04-2.47,6.54-4.36,10.18-6.46.35.07.32.04.32.04-2.74,4.44-5.48,8.89-8.09,13.69.12.36.12.31-.19.34-.51.41-.71.79-.91,1.18Z"/><path class="cls-50" d="M182.66,491.11c-.52-3.43-1.03-6.87-1.13-10.76,2.01-.63,3.64-1.09,5.19-.91,9.76,1.11,19.51,2.39,29.27,3.54,2.42.28,4.76.07,5.11-3.17,1.6,4.8,3.2,9.61,4.83,14.82.03.41-.01.45-.45.43-5.36-.5-10.29-.99-15.22-1.44-9.2-.84-18.4-1.67-27.6-2.5Z"/><path class="cls-37" d="M570.77,634.01c-.26,2.99-.52,5.98-.93,9.57.25,1.45.66,2.29,1.07,3.14,3.36-1.92,5.11,1.15,7.37,2.47,1.96,1.14,3.77,2.54,5.65,3.82-.03,1.39-.05,2.77-.18,4.57-.9.26-1.87.36-2.48-.07-10.58-7.42-21.1-14.91-31.66-22.35-1.59-1.12-3.31-2.06-5.3-3.46-.34-.81-.34-1.26-.29-2.08,1.63-4.12,3.21-7.88,5.11-11.5,7.43,5.38,14.53,10.64,21.64,15.89Z"/><path class="cls-54" d="M213.91,459.01c.46.87.92,1.74,1.66,2.71.36,1.18.43,2.25.53,3.95.14.92.33,1.13.62,1.26.43,1.11.86,2.23.92,3.74-4.39.24-8.42.22-12.42-.11-8.63-.71-17.24-1.58-25.85-2.39-.8-3.79-1.6-7.58-1.9-11.77,12.48.6,24.46,1.6,36.44,2.6Z"/><path class="cls-12" d="M179.38,468.61c8.61.37,17.22,1.24,25.85,1.96,4,.33,8.03.35,12.44.47,1.4,2.64,2.4,5.33,3.42,8.39-.33,3.61-2.67,3.83-5.1,3.54-9.76-1.14-19.5-2.43-29.27-3.54-1.55-.18-3.17.29-5.14.51-.98-3.6-1.59-7.25-2.21-11.34Z"/><path class="cls-39" d="M500.54,437.19c-2.89,3.87-5.77,7.74-9.27,11.64-1.85-1.27-3.3-2.42-4.28-3.89-4.45-6.7-8.77-13.48-12.98-20.52,2.41-2.29,4.66-4.3,6.91-6.31,1.8-.62,3.59-1.23,5.73-1.61,4.86,7.06,9.37,13.87,13.89,20.69Z"/><path class="cls-9" d="M500.8,437c-4.77-6.63-9.29-13.45-13.82-20.64,4.74-3.41,9.49-6.44,14.61-9.07,1.28,7.02,6.8,14.73,11.33,15.7-1.53,1.75-3.06,3.51-4.72,5.55-2.47,2.95-4.81,5.62-7.41,8.47Z"/><path class="cls-76" d="M480.49,418.1c-1.82,2.01-4.07,4.02-6.82,6.38-4,3.49-7.49,6.61-10.99,9.74-3.01,2.84-6.01,5.68-9.33,8.63-.92-3.03-1.66-6.14-2.1-9.3-.55-3.99-.86-8.01-1.29-12.23,10.19-1.09,20.14-2.15,30.53-3.22Z"/><path class="cls-31" d="M248.02,501.08c-2.4,3.23-4.79,6.46-7.86,9.8-7.87-2.23-15.06-4.56-22.09-7.2,2.72-3.07,5.29-5.84,7.85-8.61,0,0,.04-.04.04-.07,2.02-.39,4.05-.76,6.64-.9,3.8,1.39,7.1,2.41,10.26,3.77,1.84.79,3.45,2.12,5.16,3.21Z"/><path class="cls-54" d="M513.22,422.82c-4.83-.8-10.35-8.51-11.25-15.55,3.77-2.62,7.55-4.83,11.68-6.67,1.66,5.25,2.46,10.52,8.8,11.61-.13.39-.27.78-.49,1.46-2.87,3.19-5.66,6.09-8.74,9.15Z"/><path class="cls-22" d="M248.33,500.94c-2.02-.95-3.63-2.28-5.47-3.07-3.15-1.36-6.45-2.39-9.93-3.87-.24-.32-.12-.65.25-.82.87-.61,1.36-1.05,1.85-1.49,2.31-1.58,4.62-3.16,7.66-4.76,2.08-.57,3.45-1.11,4.79-1.69,3.46-1.52,9.42.52,11.61,3.99-3.48,3.86-6.96,7.72-10.75,11.72Z"/><path class="cls-24" d="M522.73,412.12c-6.63-1-7.42-6.27-8.74-11.51,4.38-2.18,8.76-3.98,13.55-5.44,2.16,2.89,3.9,5.43,5.64,7.96-1.86,1.85-3.72,3.7-5.84,5.75-1.62,1.18-2.97,2.16-4.61,3.24Z"/><path class="cls-6" d="M516.38,531.1c6.25-.27,12.26-.37,18.51-.15-.24,2.74-.72,5.17-1.88,7.84-7.98.85-15.27,1.45-22.45,1.71,1.19-2.41,2.26-4.49,3.32-6.57.75-.89,1.51-1.78,2.5-2.83Z"/><path class="cls-16" d="M533.48,402.98c-2.04-2.38-3.78-4.92-5.55-7.85,1.84-1.24,3.71-2.08,5.88-3.12,6.12-1.61,11.95-3.03,17.78-4.44.25.53.5,1.06.74,1.59-3.21,2.38-6.41,4.75-9.83,7.45-3.05,2.28-5.88,4.25-9.02,6.37Z"/><path class="cls-50" d="M574.08,641c1.66-2.94,3.32-5.87,5.57-8.85,3.13,2.25,5.67,4.53,8.21,6.82-.23.88-.47,1.76-.77,2.99-.53,1.47-1,2.59-2.07,3.89-4.05-1.5-7.5-3.18-10.94-4.86Z"/><path class="cls-31" d="M492,567.96c1.22.44,2.44.89,4.04,1.49.38.16.3.4.65.5.99.77,1.64,1.43,2.24,2.43-3.63,2.74-7.2,5.15-11.01,7.3-2.15-2.37-4.06-4.49-5.6-6.67,3.2-2.24,8.34-.1,9.68-5.05Z"/><path class="cls-53" d="M496.34,569.85s.08-.24.08-.3c-.56-8.57.03-16.84,5.27-24.08,1.45,1.37,2.57,2.59,3.59,4.16-1.19,3.02-2.27,5.69-3.62,8.59-1.95,4.03-3.64,7.83-5.33,11.62Z"/><path class="cls-5" d="M491.79,567.69c-1.13,5.21-6.26,3.08-9.76,5.17-2.33-1.38-4-2.68-5.78-4.2-.17-.38-.22-.54-.06-.97,2.09-1.78,3.96-3.3,5.83-4.81,3.18,1.51,6.37,3.03,9.76,4.81Z"/><path class="cls-52" d="M573.92,641.29c3.6,1.38,7.05,3.06,10.88,4.78.08,2.11-.22,4.17-.7,6.59-2.05-.93-3.86-2.33-5.82-3.47-2.26-1.32-4-4.39-7.37-2.47-.41-.84-.82-1.69-.96-2.73,1.45-.93,2.63-1.67,3.97-2.7Z"/><path class="cls-7" d="M481.8,562.64c-1.65,1.76-3.52,3.27-5.92,4.95-2.34-1.16-4.16-2.5-5.98-4.2.37-2.04.74-3.71,1.37-5.39.44-.01.61-.02,1.1.03,1.33.33,2.35.61,3.37.88,1.95,1.16,3.89,2.32,6.06,3.73Z"/><path class="cls-56" d="M505.39,549.29c-1.12-1.22-2.24-2.44-3.42-4.03,3.71-3.98,7.47-7.6,11.57-11.28-.73,2.02-1.79,4.1-3.2,6.75-1.65,3.15-2.97,5.72-4.45,8.36-.17.06-.5.19-.5.19Z"/><path class="cls-26" d="M643.14,510.12c-3.66,1.73-7.06,3.32-10.85,4.52-1.04-1.49-1.69-2.6-2.35-3.7,3.17-.86,6.34-1.72,9.87-2.75,1.76-.03,3.17.11,4.58.26-.33.51-.66,1.01-1.25,1.67Z"/><path class="cls-69" d="M483.46,530.83c.26.02.51.03,1.15.12-1.28,3.34-3.11,6.53-4.52,9.9-1.04,2.5-1.53,5.23-2.92,8.03-1.07.16-1.48.15-1.93-.04-.05-.18-.12-.56.15-.81,1.59-3.44,2.91-6.64,4.4-10.11,1.15-2.5,2.13-4.72,3.24-7,.14-.05.44-.09.44-.09Z"/><path class="cls-74" d="M475.28,549.02c.41,0,.82.02,1.54.02-.1,3.01-.51,6.02-1,9.45-1.1.15-2.12-.13-3.41-.82.77-3.16,1.82-5.91,2.87-8.65Z"/><path class="cls-89" d="M234.6,491.62c-.07.51-.56.95-1.32,1.42-.25-.36-.23-.76-.09-1.3.41-.16.69-.18,1.4-.12Z"/><path class="cls-19" d="M560,489.02c.11-.04.21-.09.14-.09-.18.05-.15.07-.14.09Z"/><path class="cls-19" d="M136,352.98c-.13-.15-.28-.28-.43-.4.1.05.19.1.33.3.05.16.08.12.1.1Z"/><path class="cls-67" d="M824.24,561.06c-.06-.37.2-.65.79-.94.06.34-.21.69-.79.94Z"/><path class="cls-12" d="M216.69,466.71c-.25.09-.45-.12-.6-.64.23-.07.44.14.6.64Z"/><path class="cls-91" d="M167.98,492c4.41,6.41,8.81,12.83,13.56,19.55.06,1-.22,1.68-.8,2.53-7.71,10.28-15.03,20.45-22.56,30.46-4.24,5.63-8.83,11-13.53,16.27-1.71-2.78-3.15-5.35-4.65-8.25-1.3-2.43-2.54-4.52-3.88-6.97-1.13-2.74-2.18-5.13-3.16-7.88,9.03-12.95,17.89-25.62,27.05-38.07,2.15-2.93,5.29-5.12,7.98-7.66Z"/><path class="cls-86" d="M167.92,491.66c-2.63,2.87-5.77,5.07-7.92,8-9.16,12.46-18.02,25.13-27.27,37.94-.47-.06-.66-.33-.91-.88-.36-.75-.66-1.23-.93-2.05-.29-.48-.6-.62-.93-.71,0,.05.09.08.09.08-1.97-5.81-3.9-11.62-5.92-17.41-.65-1.86-1.51-3.65-2.14-6.15.9-1.31,1.82-1.82,2.4-2.6,9.3-12.44,18.55-24.91,27.81-37.38,5.22,6.94,10.44,13.88,15.72,21.17Z"/><path class="cls-3" d="M92.91,530.03c-3.36-5.14-6.58-10.37-10.09-15.39-11.95-17.11-26.85-31.23-44.02-43.02-1.19-.81-2.35-1.65-3.26-2.92,30.76,5.62,55.67,21.53,76.8,44.03-1.73,1.25-3.42,1.98-4.68,3.16-4.99,4.64-9.84,9.42-14.75,14.14Z"/><path class="cls-44" d="M161.97,612.99c-1.6,1.1-3.39,2-4.76,3.34-10.22,9.95-20.35,19.99-30.76,30.25-1.82-1.93-3-3.18-4.17-4.43-6.37,5.38-12.53,10.58-19.04,15.82-.65-3.67-.96-7.37-.86-11.56,4.73-4.24,9.01-8.06,13.45-11.68,1.43-1.17,3.29-1.82,4.96-2.72.36-2.71.71-5.43,1.49-8.61,11.54-11.14,22.66-21.81,34.04-32.23,1.72,4.47,3.17,8.69,4.63,13.33.34,3.11.68,5.8,1.02,8.49Z"/><path class="cls-82" d="M152.1,470.19c-9.16,12.77-18.41,25.25-27.71,37.69-.58.77-1.5,1.29-2.43,2.24-4.12-7.12-8.07-14.56-12.01-22.72.35-1.45.6-2.26,1.07-2.9,8.03-10.98,16.09-21.94,24.14-32.9,5.61,6.09,11.22,12.19,16.94,18.59Z"/><path class="cls-42" d="M135.04,451.3c-7.93,11.26-15.99,22.22-24.02,33.2-.47.64-.72,1.45-1.13,2.57-4.67-6.85-9.28-14.09-13.67-21.8,7.46-10.1,14.69-19.71,21.92-29.33,5.59,5.02,11.19,10.05,16.9,15.37Z"/><path class="cls-47" d="M156.05,590.92c-11.11,10.67-22.23,21.34-33.69,32.04-1.1-5.59-1.86-11.22-2.43-17.56,2.98-3.27,5.72-5.87,8.54-8.39,7.49-6.69,15.01-13.35,22.79-19.79,1.77,4.72,3.28,9.21,4.78,13.7Z"/><path class="cls-51" d="M118,435.62c-7.09,9.92-14.32,19.54-21.86,29.3-3.94-4.63-7.55-9.4-10.93-14.57,1.76-2.06,3.36-3.66,4.78-5.41,5.13-6.33,10.19-12.71,15.28-19.07,4.2,3.15,8.39,6.29,12.73,9.75Z"/><path class="cls-28" d="M151,577c-7.51,6.67-15.03,13.33-22.52,20.02-2.82,2.52-5.57,5.12-8.5,8.01-1.23-4.63-2.31-9.59-3.18-15.28,3.27-3.44,6.41-6.07,9.39-8.87,6.32-5.93,12.56-11.96,19.11-17.72,2.08,4.76,3.9,9.3,5.71,13.84Z"/><path class="cls-31" d="M213.91,458.64c-11.98-.64-23.96-1.64-36.39-2.64-1.47-4.07-2.49-8.14-3.07-12.6,11.53.58,22.62,1.56,33.71,2.53,1.92,4.11,3.83,8.23,5.75,12.71Z"/><path class="cls-27" d="M225.49,495.05c-2.13,2.8-4.69,5.57-7.73,8.67-1.56.98-2.64,1.64-4.13,2.24-2.51-.35-4.6-.68-6.7-.95-7.93-1.01-15.85-2-23.78-3-.2-3.36-.4-6.72-.54-10.49,9.26.43,18.46,1.25,27.66,2.09,4.93.45,9.86.94,15.22,1.44Z"/><path class="cls-39" d="M105.11,425.57c-4.93,6.66-9.99,13.04-15.12,19.37-1.42,1.75-3.02,3.36-4.89,5.08-3.32-3.37-6.29-6.79-9.05-10.68,5.46-7.81,10.72-15.16,15.98-22.51,4.3,2.81,8.61,5.62,13.07,8.73Z"/><path class="cls-50" d="M145.02,562.93c-6.27,5.99-12.51,12.01-18.84,17.94-2.98,2.8-6.12,5.43-9.38,8.48-1.08-2.49-1.97-5.33-2.8-8.85,1.4-2.16,2.7-3.67,4.09-5.1,7.31-7.51,14.63-15,21.95-22.5,1.44,2.57,2.89,5.14,4.62,8.23.31.95.33,1.37.35,1.79Z"/><path class="cls-51" d="M183.07,502.45c8,.56,15.93,1.55,23.85,2.56,2.1.27,4.19.6,6.54,1.25-1.66,2.81-3.59,5.28-5.81,7.89-2.09,2.05-3.88,3.95-6.07,5.81-6.12-.67-11.85-1.3-17.64-2.22-1.02-1.46-1.97-2.64-2.92-3.82.28-.68.56-1.37.87-2.33.39-3.09.74-5.89,1.17-9.14Z"/><path class="cls-2" d="M208.12,445.57c-11.04-.62-22.13-1.59-33.64-2.57-1.46-3.4-2.49-6.81-3.04-10.61,10.59.24,20.7.88,30.8,1.51,1.95,3.77,3.89,7.54,5.88,11.67Z"/><path class="cls-54" d="M131.88,536.99c.19.28.39.55.8.96,1.26,2.52,2.3,4.92,3.07,7.7-7.09,6.52-13.86,12.69-20.72,18.77-1.55,1.37-3.38,2.41-5.08,3.61-1.34-3.41-2.69-6.81-3.71-10.64,5.46-5.23,10.4-10.28,15.81-14.76,2.87-2.38,6.54-3.78,9.84-5.63Z"/><path class="cls-4" d="M87.82,598.3c-7.14-13.06-18.01-22.58-29.52-32.27,1.88.37,3.96.34,5.6,1.17,7.31,3.69,14.64,7.39,21.67,11.57,4.15,2.47,7.76,5.86,11.56,9.49-3.15,3.78-6.23,6.91-9.31,10.04Z"/><path class="cls-12" d="M109.95,568.4c1.7-1.58,3.53-2.63,5.08-4,6.86-6.07,13.64-12.24,20.81-18.42,1.61,2.05,2.86,4.14,4.16,6.58-7.27,7.84-14.6,15.32-21.9,22.83-1.39,1.43-2.69,2.94-4.17,4.76-1.42-3.56-2.69-7.46-3.97-11.76Z"/><path class="cls-31" d="M131.83,536.71c-3.25,2.12-6.92,3.53-9.79,5.91-5.41,4.49-10.35,9.53-15.84,14.39-1.93-3.4-3.5-6.85-4.75-10.66,3.59-3.05,6.89-5.69,10.1-8.43,4.23-3.61,8.39-7.31,12.57-10.97,1.76,2.32,3.51,4.63,5.61,7.02.34.07.24.04.22.27.29.41.61.59.93.77.3.48.6.95.96,1.71Z"/><path class="cls-50" d="M91.86,416.55c-5.09,7.64-10.35,14.99-15.95,22.48-3.32-2.95-6.3-6.03-9.09-9.57,1.69-2.18,3.22-3.9,4.69-5.67,3.58-4.29,7.14-8.6,10.71-12.9,3.15,1.79,6.31,3.58,9.63,5.66Z"/><path class="cls-5" d="M124.02,526.62c-4.09,3.99-8.25,7.68-12.48,11.3-3.21,2.74-6.5,5.39-10.12,8.07-1.76-2.72-3.16-5.44-4.31-8.66,3.19-3.34,6-6.33,9.1-8.99,3.78-3.25,7.8-6.23,11.72-9.32,2,2.42,4,4.85,6.09,7.6Z"/><path class="cls-14" d="M82.02,410.6c-3.37,4.59-6.93,8.9-10.51,13.19-1.47,1.76-3,3.48-4.87,5.36-2.71-2.07-5.06-4.28-7.51-7.15,3.9-6.11,7.9-11.57,11.89-17.03,3.6,1.78,7.19,3.56,10.99,5.62Z"/><path class="cls-20" d="M202.17,433.55c-10.04-.28-20.15-.92-30.72-1.55-1.45-2.75-2.43-5.5-3.41-8.63,9.46.28,18.9.93,28.83,1.54,2.06,2.74,3.64,5.51,5.3,8.64Z"/><path class="cls-32" d="M70.8,404.71c-3.77,5.73-7.77,11.19-11.81,17-3.28-2.46-6.51-5.27-9.85-8.74.79-2.17,1.68-3.69,2.57-5.21,1.78-3.02,3.57-6.04,5.35-9.05,4.5,1.91,9.01,3.82,13.73,6Z"/><path class="cls-20" d="M117.83,518.71c-3.82,3.41-7.84,6.39-11.62,9.64-3.1,2.66-5.92,5.65-9.18,8.64-1.56-1.99-2.79-4.13-4.07-6.6,4.86-5.07,9.71-9.85,14.7-14.49,1.27-1.18,2.95-1.92,4.79-2.85,1.99,1.79,3.63,3.57,5.37,5.67Z"/><path class="cls-31" d="M56.83,398.45c-1.55,3.27-3.33,6.29-5.12,9.31-.89,1.51-1.78,3.03-2.71,4.9-3.65-2.43-7.26-5.21-10.75-8.49,1.99-3.74,3.87-6.99,5.74-10.23,4.2,1.42,8.4,2.83,12.83,4.5Z"/><path class="cls-52" d="M120.8,631.64c-1.68,1.26-3.54,1.92-4.97,3.09-4.44,3.63-8.72,7.45-13.39,11.24-.79-3-1.25-6.05-1.33-9.55,4.15-3.88,7.84-7.4,11.73-10.68,1.42-1.2,3.31-1.83,4.98-2.72,1,2.75,2,5.51,2.98,8.63Z"/><path class="cls-18" d="M98.5,626.17c-.96-3.08-1.92-6.16-2.62-9.74,4.76-4.13,9.26-7.77,13.76-11.4,1.45,2.75,2.89,5.51,3.95,8.66-1.89,1.63-3.4,2.86-4.91,4.1-3.4,2.79-6.79,5.59-10.19,8.38Z"/><path class="cls-28" d="M98.55,626.57c3.35-3.2,6.74-5.99,10.14-8.79,1.5-1.24,3.01-2.47,4.86-3.74,1.65,2.72,2.96,5.48,4.27,8.6-1.67,1.25-3.56,1.89-4.98,3.08-3.89,3.28-7.58,6.8-11.71,10.25-1.08-2.98-1.8-5.99-2.57-9.41Z"/><path class="cls-24" d="M109.54,604.72c-4.39,3.94-8.89,7.58-13.74,11.33-1.54-2.9-2.72-5.92-3.78-9.61,3.74-4.24,7.35-7.83,10.96-11.41,2.15,3.13,4.3,6.25,6.56,9.69Z"/><path class="cls-6" d="M43.75,393.68c-1.62,3.52-3.5,6.76-5.66,10.21-4.47-2.59-8.64-5.38-12.95-8.83.53-2.45,1.18-4.25,1.84-6.05,5.51,1.47,11.02,2.93,16.77,4.67Z"/><path class="cls-6" d="M102.9,594.69c-3.53,3.91-7.15,7.49-10.94,11.39-1.46-2.16-2.75-4.63-4.09-7.44,3.03-3.47,6.12-6.6,9.39-10.1,1.98,1.7,3.77,3.76,5.63,6.15Z"/><path class="cls-1" d="M26.66,388.81c-.34,2-1,3.79-1.7,5.96-5.06-2.52-10.08-5.4-15.1-8.29.05-.37.1-.75.16-1.12,5.44,1.08,10.89,2.17,16.64,3.45Z"/><path class="cls-79" d="M162.13,613.36c-.5-3.05-.84-5.75-1.07-9.09.38-.86.65-1.06,1.3-1.22,5.6,1.57,10.79,3.24,16.06,4.58,7.48,1.91,15.02,3.58,22.54,5.36-.66,6.69-1.32,13.39-2.36,20.55-2.6.38-4.9.65-7.02.15-8.89-2.1-17.73-4.44-26.59-6.69-.9-4.43-1.8-8.86-2.86-13.65Z"/><path class="cls-92" d="M200.96,612.74c-7.53-1.53-15.07-3.2-22.55-5.11-5.27-1.35-10.46-3.02-16.05-4.99,1.61-6.85,3.59-13.25,5.95-19.6,12.14,3.35,23.9,6.65,35.67,10.38-.99,6.48-1.99,12.53-2.99,18.59,0,0-.01.49-.02.74Z"/><path class="cls-80" d="M164.98,627.44c8.86,1.81,17.7,4.15,26.59,6.25,2.12.5,4.42.23,7.02.31.05,6.73-.32,13.47-.61,20.21-.21,4.82-3.55,4.14-6.42,3.43-5.59-1.39-11.04-3.35-16.64-4.69-2.26-.54-4.76-.06-7.54,0-.86-6.09-1.33-12.24-2.08-18.67-.3-2.33-.31-4.37-.32-6.85Z"/><path class="cls-80" d="M201.34,612.04c.65-6.09,1.64-12.15,2.64-18.62,0-.41.01-.41.39-.41,3.41,1.79,6.61,3.34,9.44,5.41,7.41,5.41,14.65,11.04,22.04,16.83.58.61,1.08.98,1.44,1.74-.9,1.24-1.82,2-2.37,2.97-.3.53,0,1.41.02,2.51-.99,4.43-1.99,8.48-2.99,12.52,0,0-.49,0-.73,0-8.71-6.95-17.16-13.94-25.67-20.84-1.12-.91-2.57-1.4-4.22-2.12Z"/><path class="cls-92" d="M386.99,612.99s-.01-.49,0-1.18c-1-6.73-2.01-12.76-3.01-19.06.01-.43.02-.6.45-.77,2.84-.38,5.33-.49,7.65-1.19,8.33-2.5,16.59-5.19,25.04-7.47,1.72,6.78,3.29,13.23,4.52,19.82-9.01,2.98-17.64,5.91-26.36,8.57-2.64.81-5.52.87-8.28,1.28Z"/><path class="cls-79" d="M386.99,613.41c2.77-.82,5.64-.89,8.28-1.69,8.72-2.66,17.36-5.59,26.69-8.57,1.1-.15,1.53-.16,1.97-.16-1.31,7.38-2.63,14.77-3.94,22.58-.11.75-.3,1.01-1.18,1.33-6.08,1.84-11.48,3.82-17.04,5.19-4.16,1.03-8.52,1.29-12.79,1.9-.67-6.72-1.33-13.44-2-20.58Z"/><path class="cls-80" d="M388.99,634.44c4.27-1.05,8.63-1.31,12.79-2.34,5.55-1.38,10.96-3.36,16.82-5.09-.08,7.8-.54,15.6-1.3,23.7-7.39,2.36-14.54,4.26-21.55,6.56-3.82,1.25-5.43-.25-5.7-3.68-.49-6.22-.72-12.46-1.05-19.14Z"/><path class="cls-80" d="M383.97,593.01c1,6.04,2.01,12.07,3.01,18.55-3.25,2.86-6.64,5.11-9.72,7.72-5.62,4.77-11.05,9.75-17.07,14.34-1.19-2.51-1.87-4.72-2.36-7.21,2.23-2.13,4.26-3.98,7.02-6.49-3.58.92-6.24,1.61-8.88,1.91-.26-2.12-.55-3.86-.61-5.75.44-.46.66-.76,1.2-1.12,6.8-5.64,13.21-11.29,19.77-16.76,2.35-1.96,5.07-3.48,7.62-5.2Z"/><path class="cls-38" d="M357.64,626.7c.68,2.21,1.37,4.42,2.21,6.97.48,2.74.8,5.13,1.13,7.93-1.97,2.02-4.05,3.53-5.9,5.28-3.81,3.61-7.49,7.35-11.56,11.09-.44-2.21-.55-4.48-.61-7.49.07-.98.09-1.2.38-1.64,1.36-2.76,2.45-5.3,3.71-8.14.82-1.71,1.48-3.12,2.4-4.73,2.93-3.22,5.59-6.24,8.25-9.26Z"/><path class="cls-77" d="M423.96,602.73c-.46.26-.9.26-1.66.27-1.89-6.44-3.46-12.89-5.22-20.04-2.5-6.45-4.8-12.2-7.25-18.29-2.38-5.44-4.62-10.55-6.9-16.02-.36-1.79-.69-3.21-.99-5.11.06-9.14.09-17.82.12-26.49.42-.31.83-.63,1.89-1.01,1.81.69,3.37,1.19,4.09,2.25,5.04,7.41,9.83,15,14.85,22.42,4.63,6.84,9.45,13.54,14.16,20.62-.05.76-.08,1.19-.38,1.84-2.11,5.73-3.94,11.23-6.07,16.93-2.39,7.42-4.47,14.64-6.55,21.86-.02.17-.04.34-.09.76Z"/><path class="cls-29" d="M424.4,601.99c1.73-7.24,3.81-14.46,6.36-21.57,8.01,8.39,15.5,16.71,23.13,24.9,1.39,1.5,3.35,2.47,5.12,4.01.08.76.1,1.2-.16,1.88-.47,1.67-.67,3.1-.86,4.98-.4,6.24-.82,12.03-1.23,17.82-4.12-3.77-8.49-7.31-12.32-11.36-6.26-6.61-12.16-13.56-18.26-20.32-.27-.3-.94-.23-1.78-.34Z"/><path class="cls-30" d="M476.07,647.19c-.36,1.04-.72,2.09-1.13,3.47-1.82-1.23-3.62-2.78-5.36-4.37-3.72-3.42-7.42-6.87-11.43-10.75.78-4.14,1.86-7.83,3.28-11.49,1.96,1.39,3.59,2.74,5.21,4.11,3.09,2.62,6.18,5.25,9.28,8.24.01,1.08,0,1.81-.27,2.79-.36,1.46-.46,2.66-.58,4.17.3,1.09.62,1.86.94,2.94.03.5.04.7.06.9Z"/><path class="cls-75" d="M461.08,624.01c-1.08,3.69-2.16,7.39-3.3,11.46-.32-.06-.59-.5-.94-1.2.32-6.05.74-11.84,1.5-18.01,1.54.41,2.74,1.2,3.94,2.36-.4,2.04-.79,3.71-1.19,5.39Z"/><path class="cls-91" d="M543.97,630c0,.45,0,.89-.02,1.67-1,4.05-1.99,7.77-2.98,11.91,0,.42-.5.42-.75.42-6.18,1.14-12.1,2.3-18.04,3.41-1.44.27-2.91.4-4.78.59-1.09-3.72-1.75-7.44-2.42-11.58,0-.42.02-.42.42-.43,2.19-.35,4.01-.57,5.75-1.05,6.95-1.93,13.88-3.95,21.07-5.82.75.36,1.25.62,1.74.88Z"/><path class="cls-77" d="M514.97,636c-3.65,1.85-7.36,3.55-10.89,5.58-3.3,1.89-6.41,4.12-10.19,6.11-1.35-1.62-2.13-3.15-2.92-5.04-.28-1.46-.55-2.57-.88-3.99-.11-1.74-.15-3.17.13-4.74,2.41-1.48,4.42-2.97,6.6-4.13,5.01-2.67,10.1-5.19,15.18-7.45.35,1.1.67,1.89.99,3.07.68,3.8,1.35,7.2,2.02,10.6,0,0-.02,0-.03,0Z"/><path class="cls-37" d="M490.98,643c.78,1.53,1.56,3.07,2.58,4.81.29.95.34,1.69.39,2.81-3.24,2.46-6.45,4.57-9.71,6.62-1.06.67-2.23,1.18-3.7,1.77-.71-2.39-1.06-4.79-1.06-7.64,4.07-3.09,7.79-5.73,11.5-8.37Z"/><path class="cls-77" d="M289.02,637.99c-.46-1.53-.93-3.06-1.7-5.18-1.26-3.02-2.22-5.44-3.24-8.23-1.05-2.43-2.05-4.51-3.07-6.92-.08-.76-.14-1.2.12-1.77,1.63-1.4,3.05-2.57,4.24-3.94,5.3-6.08,10.53-12.21,16.03-18.21.65.42,1.06.72,1.49,1.51.51,8.23.5,15.89-4.26,22.95-1.73,3.74-3.19,7.27-4.93,11.02-1.09,3.08-1.91,5.92-3.05,8.77-.76,0-1.2,0-1.63-.01Z"/><path class="cls-79" d="M289.14,638.32c.31-.33.75-.32,1.73-.03,7.4,2.1,14.25,3.9,21.11,5.71-.33,3.05-.67,6.11-1,9.58-6.03-.58-12.06-1.58-18.53-2.57-.78-2.07-1.12-4.15-1.47-6.63-.58-2.18-1.14-3.96-1.83-6.07Z"/><path class="cls-52" d="M284.15,624.93c.96,2.42,1.92,4.85,2.92,7.64-5.82,5.3-11.69,10.23-18.08,15.18-.76-.2-.97-.45-1.26-1.14-.39-3.15-.66-5.88-.57-8.64,5.9-4.37,11.45-8.71,16.99-13.04Z"/><path class="cls-13" d="M267.85,647.03c.18.27.38.52.83.86.1,1-.02,1.89-.74,2.92-1.77-.82-2.95-1.79-3.65-2.36-3.1,1.67-5.74,3.1-8.37,4.52-.7-2.06-1.4-4.13-1.86-6.81,2.52-2.48,4.8-4.35,7.37-6.04,1.16,1.73,1.81,3.46,2.94,4.79.83.98,2.29,1.43,3.46,2.12Z"/><path class="cls-52" d="M255.84,653.37c2.72-1.82,5.35-3.24,8.46-4.91.7.57,1.87,1.54,3.38,2.58-3.14,3.01-6.61,5.95-10.44,8.91-.73-2.05-1.11-4.12-1.4-6.58Z"/><path class="cls-52" d="M232.3,635.02c.65-4.08,1.65-8.12,2.84-12.57.19-.4.59-.42.81-.15,4.84,5.4,9.45,10.54,14.2,16.06.52,1.99.9,3.6,1.29,5.21-.16,1.88-.32,3.77-.58,6.05-3.32-2.07-6.61-4.46-9.75-7.05-2.91-2.4-5.65-5-8.81-7.55Z"/><path class="cls-77" d="M330.92,651.94c-.47.6-.93,1.19-1.63,1.96-5.35-3.52-10.47-7.21-15.96-11.33-.03-3.15.31-5.86.79-8.89.39-1.43.64-2.54,1.26-3.66,2.49,1.2,4.62,2.37,6.72,3.59,3.64,2.11,7.27,4.26,10.93,6.74.3,1.11.59,1.87.76,2.96-.38,1.43-.66,2.54-1.21,3.85-.74,1.73-1.2,3.25-1.66,4.78Z"/><path class="cls-92" d="M313.97,634c-.34,2.71-.67,5.43-1.02,8.56-.32.53-.57.73-.87,1.22-6.96-1.59-13.81-3.4-20.88-5.49.6-3.14,1.41-5.99,2.86-8.91,7.06,1.49,13.49,3.05,19.92,4.62Z"/><path class="cls-25" d="M251.72,643.51c-.67-1.55-1.06-3.15-1.22-5.14,2.28-1.68,4.32-2.97,6.69-4.14,1.53,1.99,2.74,3.86,3.94,5.72-2.28,1.86-4.56,3.73-7.03,5.87-.83-.61-1.46-1.49-2.39-2.31Z"/><path class="cls-52" d="M331.08,652.24c.3-1.83.76-3.35,1.82-4.94,3.34,1.87,6.08,3.79,8.82,5.72-.3,2.18-.6,4.35-1.13,6.81-3.27-2.24-6.31-4.77-9.51-7.6Z"/><path class="cls-36" d="M490.97,642.64c-3.7,3-7.42,5.64-11.47,8.33-1.13-1.26-1.93-2.57-3.08-3.83-.37-.15-.39-.35-.08-.87.76-.97,1.2-1.63,1.83-2.55,3.08-2.41,5.96-4.55,8.54-6.46,1.41.7,2.43,1.2,3.44,1.7.27,1.11.54,2.21.82,3.67Z"/><path class="cls-50" d="M341.84,652.75c-2.87-1.65-5.61-3.58-8.67-5.65-.04-1.25.23-2.35.72-4.05.76-1.13,1.31-1.65,2.18-2.03,2.53,2.78,4.73,5.4,6.94,8.03-.02.22-.04.45-.13,1-.35,1.03-.64,1.73-1.04,2.7Z"/><path class="cls-64" d="M556.76,193.27c11.61,18.92,12.54,38.18,1.84,57.1-10.4,18.4-26.99,27.63-48.21,27.58-29.87-.07-53.76-24.75-53.59-54.94.18-29.93,24.23-53.99,53.99-54,19.44,0,34.58,8.21,45.96,24.27Z"/><path class="cls-64" d="M207.33,206.89c-34.76-11.01-47.95-49.23-27.03-77.26,13.01-17.42,37.06-24.23,57.21-16.18,20.3,8.11,33.47,29.17,31.09,49.7-2.76,23.74-19.1,41.66-41.52,44.56-6.31.82-12.88-.44-19.74-.82Z"/><path class="cls-57" d="M360.8,248.21c9.94,11.9,11.78,24.69,5.19,38.31-6.15,12.7-19.34,19.97-33.7,18.34-14.12-1.6-23.9-9.39-28.64-22.9-5.17-14.76.9-31.51,14.05-39.6,14.02-8.63,30.65-6.45,43.09,5.86Z"/><path class="cls-57" d="M416.93,58.97c14.88,12.78,17.55,32.21,6.74,47.09-10.35,14.24-30.35,18.09-45.38,8.73-15.97-9.94-20.79-31.46-10.59-47.21,10.78-16.64,32-20.46,49.23-8.61Z"/><path class="cls-59" d="M97.74,291.32c-8.44-7.31-11.63-16.12-8.71-26.6,2.73-9.8,9.35-15.87,19.39-17.86,11.15-2.2,22.07,3.13,27.16,13.05,4.94,9.62,2.99,21.83-4.71,29.46-7.82,7.75-20.13,9.44-29.92,4.08-1.02-.56-1.95-1.26-3.21-2.12Z"/><path class="cls-63" d="M201.96,254.91c7.24-1.13,13.67-.18,19.42,3.86,9.26,6.5,9.58,17.81.76,24.86-8.5,6.79-23.31,6.37-31.48-.88-6.94-6.16-7.23-16.35-.07-22.28,3.06-2.54,7.27-3.7,11.36-5.55Z"/><path class="cls-63" d="M359.33,185.23c-9.97,10.02-26.2,10.58-35.27,1.46-6.23-6.26-6.17-15.17.13-21.31,8.29-8.08,24.39-8.37,32.98-.6,6.2,5.61,7.03,12.54,2.15,20.45Z"/><path class="cls-58" d="M453.47,321.83c-4.47-1.85-9.05-2.97-12.45-5.59-7.58-5.85-7.44-16.11-.32-22.54,8.37-7.56,23.65-7.7,32.23-.3,7.74,6.67,7.47,17.4-.68,23.64-5.41,4.14-11.64,5.45-18.77,4.79Z"/><path class="cls-58" d="M292.79,55.03c6.37,3.78,10.19,8.8,9.09,16.14-1.09,7.19-6.13,11.25-12.63,13.45-7.61,2.58-15.15,2.07-22.1-2.16-11.03-6.72-11.05-20.12.05-26.78,8.16-4.89,16.69-4.99,25.59-.65Z"/><path class="cls-58" d="M142.76,167.36c5.09,8.84,3.38,16.42-4.65,21.86-8.28,5.6-21.28,5.19-29.09-.91-8.68-6.79-8.49-18.07.42-24.57,10.05-7.34,24.12-5.92,33.32,3.63Z"/><path class="cls-57" d="M668.38,389.82c-22.61-2.62-33.72-25.58-24.88-43.88,6.65-13.76,22.15-20.46,36.9-15.92,13.7,4.22,23.14,18.6,21.22,32.31-2.27,16.26-14.52,27.37-30.3,27.5-.83,0-1.66,0-2.93-.02Z"/><path class="cls-59" d="M681.13,439.17c13.16.64,22.33,8.84,22.98,20.2.72,12.43-6.44,21.78-18.39,24.02-11.47,2.16-22.84-5.53-25.41-17.18-2.55-11.52,4.63-23.3,15.99-26.2,1.45-.37,2.94-.56,4.83-.84Z"/><path class="cls-58" d="M797.15,416.23c-9.3,6.6-19.24,6.2-26.08-.77-6.27-6.39-7.11-17.13-1.9-24.27,6.63-9.09,19.08-10.62,27.65-3.4,8.53,7.19,8.78,19.37.33,28.44Z"/><path class="cls-63" d="M757.47,443.01c10.41-.45,17.26,3.77,19.97,11.97,2.52,7.64-.43,16.45-7.13,20.62-6.33,3.94-12.94,4.14-19.31.23-6.03-3.7-8.8-9.37-8.29-16.44.54-7.54,4.54-12.63,11.49-15.45.92-.37,1.9-.59,3.27-.92Z"/><path class="cls-63" d="M587.5,368.09c-3.74,9.27-11.53,13.57-19.89,11.3-8.2-2.23-13.59-10.17-12.29-18.1,1.47-8.93,8.79-14.91,17.59-14.26,9.57.71,17.24,9.57,14.59,21.06Z"/><path class="cls-65" d="M742.83,338.85c-1.6,5.95-4.35,7.98-9.74,7.11-6.3-1.02-10.58-4.73-12.52-10.79-1.87-5.85,1.59-10.33,7.7-10.35,7.52-.03,13.35,5.43,14.56,14.03Z"/><path class="cls-65" d="M716.46,419.71c-1.05-.59-1.8-.96-2.45-1.47-4.76-3.77-6.25-9.24-3.73-13.56,2.04-3.49,7.06-4.92,11.48-3.28,5.24,1.95,8.59,7.49,7.59,12.55-1.06,5.4-5.3,7.39-12.9,5.76Z"/><path class="cls-16" d="M554.72,387.43c.07-.02.29.07.29.07,0,0-.37-.05-.29-.07Z"/><path class="cls-36" d="M237.9,538.03c3.98-3.88,7.95-7.76,12.61-11.8,5.81.23,16.05,8.11,17.37,13.08-2.48,4-4.87,7.67-7.23,11.28,1.25,1.36,2.19,2.4,2.8,3.48-4.05,4.5-7.77,8.95-11.7,13.58-.38.26-.55.34-.87.11-2.74-3.78-5.33-7.25-7.78-11.02,2.38-2.95,4.81-5.47,6.73-8.33.59-.89.25-3.58-.46-3.96-3.31-1.77-6.89-3.02-10.49-4.71-.4-.74-.69-1.22-.99-1.7Z"/><path class="cls-50" d="M404.02,479c-.67,3.74-1.35,7.48-2.54,11.61-3.93.73-7.37.92-10.76,1.42-8.54,1.25-17.06,2.63-25.63,3.7-.09-.41-.14-.58-.18-.74,1.15-4.51,2.3-9.01,4.1-13.61,3.58.04,6.55.49,9.46.25,8.53-.73,17.04-1.73,25.56-2.63Z"/><path class="cls-38" d="M356.96,537.95c.35-3.04.69-6.09,1.44-9.56.8-.77,1.2-1.11,1.89-1.29,2.08,3.09,3.86,6.01,5.66,9.29,1,2.78,2,5.2,2.6,7.62-5.05-.17-5.66,4.03-7.99,6.61-4.65,5.16-10.03,9.68-15.18,14.39-.93.85-2.2,1.33-3.56,1.72-1.75-3.76-3.25-7.26-4.45-10.9,6.73-6.06,13.15-11.97,19.58-17.89Z"/><path class="cls-32" d="M407.61,456.01c-.68,4.48-1.36,8.95-2.61,13.51-2.52-.36-4.52-1.32-6.43-1.17-8.88.71-17.73,1.74-26.59,2.65,1.19-3.82,2.38-7.65,4.27-11.73,2.5-.36,4.31-.37,6.1-.55,8.42-.87,16.83-1.8,25.25-2.7Z"/><path class="cls-10" d="M365.95,536.03c-1.78-2.92-3.57-5.84-5.68-9.23-.68-.94-1.04-1.41-1.39-1.88-.06-.71-.12-1.42.23-2.51,4.34-1.61,8.33-2.68,12.19-4.1,3.31-1.23,6.46-2.86,9.98-4.17,1.75,1.72,3.2,3.3,4.71,5.23,1.7,3.11,3.35,5.87,4.62,8.68-8.47,2.69-16.57,5.34-24.66,7.99Z"/><path class="cls-31" d="M407.8,455.65c-8.61,1.27-17.02,2.19-25.44,3.07-1.79.19-3.59.2-5.83.29,1.1-4.15,2.63-8.3,4.85-12.72,5.06-.8,9.42-1.51,13.8-1.81,4.96-.34,9.95-.31,14.92-.44-.7,3.75-1.41,7.49-2.3,11.61Z"/><path class="cls-14" d="M371.72,471.25c9.13-1.16,17.98-2.18,26.86-2.89,1.91-.15,3.9.8,6.17,1.46.06,2.95-.2,5.67-.59,8.79-8.65,1.28-17.16,2.29-25.7,3.02-2.91.25-5.87-.2-9.19-.5.47-3.32,1.33-6.48,2.45-9.88Z"/><path class="cls-5" d="M410.34,443.75c-5.22.42-10.2.39-15.16.73-4.39.3-8.75,1.01-13.54,1.54,1.37-4.17,3.16-8.34,5.66-12.75,3.78-.54,6.85-1,9.93-1.1,5.3-.16,10.6-.09,15.9-.11-.85,3.8-1.7,7.6-2.79,11.69Z"/><path class="cls-54" d="M207.96,514c1.92-2.47,3.85-4.93,5.93-7.7,1.24-.95,2.31-1.6,3.71-2.29,7.51,2.3,14.7,4.64,22.28,7.03-2.01,3.83-4.42,7.6-7.15,11.73-.33.36-.68.39-.75.02-1.6-1.2-3.05-2.26-4.68-2.79-6.41-2.09-12.88-4.01-19.33-6Z"/><path class="cls-54" d="M380.99,513.99c-3.22,1.46-6.38,3.09-9.69,4.32-3.86,1.43-7.85,2.5-12.19,3.75-2.32-3.04-4.22-6.1-6.1-9.87,1.34-1.58,2.55-2.74,3.98-3.26,4.97-1.77,10.03-3.3,15.33-4.8,1.4,1.05,2.52,1.96,3.79,3.17,1.72,2.43,3.3,4.56,4.88,6.69Z"/><path class="cls-13" d="M267.97,538.96c-1.4-4.63-11.65-12.51-17.14-12.91,2.44-2.37,5.26-4.73,8.78-7.13,2.95-.32,5.88-1.64,7.3-.69,3.74,2.47,6.82,5.93,10.07,9.31-3.07,4.02-6.04,7.72-9.01,11.43Z"/><path class="cls-52" d="M356.61,538.09c-6.07,5.78-12.49,11.7-19.45,17.55-.99-.71-1.45-1.36-1.99-2.35-1.16-2.64-2.24-4.95-3.01-7.39,5.56-4.76,10.8-9.38,16.04-14,2.68,2.11,5.37,4.21,8.41,6.18Z"/><path class="cls-39" d="M348.13,531.57c-5.17,4.96-10.41,9.58-16.26,14.17-2.69-3.6-4.77-7.17-6.56-10.89,3.47-2.93,6.53-5.87,9.87-8.43,1.54-1.18,3.65-1.62,5.51-2.39,2.46,2.4,4.91,4.8,7.44,7.54Z"/><path class="cls-89" d="M259.44,489.2c-2.55-3.44-8.51-5.48-11.97-3.96-1.34.59-2.71,1.12-4.45,1.64,11.79-8.88,25.5-13.99,40.6-16.77.42-.05.46-.07.46-.07-8.1,6.37-16.19,12.75-24.64,19.16Z"/><path class="cls-31" d="M372.05,504c-5.02,1.62-10.08,3.16-15.05,4.93-1.44.51-2.64,1.68-4.03,2.91-2.33-2.8-4.59-5.96-6.87-9.82,1.46-1.79,2.81-3.48,4.46-3.85,4.39-1.01,8.92-1.45,13.39-2.12.1-.32.28-.59.74-.93.26.05.31.21.48.94,2.38,3.03,4.63,5.49,6.87,7.95Z"/><path class="cls-17" d="M413.37,431.78c-5.55.29-10.85.22-16.15.38-3.08.09-6.15.56-9.67.86.55-2.33,1.55-4.68,2.6-7.37.33-.62.6-.89,1.04-1.41,8.07-.91,15.98-1.58,24.34-2.25-.33,3.17-1.13,6.34-2.16,9.78Z"/><path class="cls-89" d="M336.05,490.84c-6.48-6.14-12.96-12.27-20.17-19.1,12.74.87,22.54,6.97,31.97,13.79-5.16-.52-8.88,1.46-11.8,5.31Z"/><path class="cls-22" d="M336.17,491.16c2.8-4.17,6.51-6.16,11.84-5.33,5.34,3.32,10.3,6.69,15.59,10.13-4.13.75-8.66,1.19-13.05,2.2-1.65.38-3,2.07-4.54,3.52-3.27-3.16-6.49-6.68-9.84-10.53Z"/><path class="cls-13" d="M340.6,523.71c-1.77,1.09-3.88,1.52-5.42,2.7-3.34,2.56-6.4,5.5-10.16,8.26-2.83-3.21-5.07-6.4-6.99-9.72,3.97-3.69,7.62-7.25,11.27-10.81,3.74,3.08,7.48,6.17,11.3,9.57Z"/><path class="cls-25" d="M329.16,513.87c-3.51,3.84-7.16,7.4-11.42,10.93-3-2.95-5.38-5.88-7.75-9.18,1.49-5.07,5.13-6.99,9.59-7.86,3.15,1.95,6.29,3.89,9.58,6.11Z"/><path class="cls-23" d="M288.53,501.73c.88-.7,1.75-1.41,2.78-2.23-2.77-1.9-5.4-3.71-8.03-5.52.13-.43.26-.87.38-1.3,9.76,4.53,19.76,5.39,30.08,1.4.08.66.17,1.32.25,1.97-1.86,1.1-3.73,2.2-6.14,3.63,1.18.94,2.13,1.69,2.9,2.82-1.26.05-2.41-.12-3.41-.6-4.82-2.33-6.8-1.11-7.72,4.52-1.09.25-1.79.58-2.56.53-1.39-4.61-4.86-5.08-8.53-5.21Z"/><path class="cls-34" d="M272.91,509.8c1.01-.65,2.03-1.3,3.74-1.93q9.51-3.14,15.13,4.33c-2.48,2.47-4.8,4.64-7.44,6.74-2.35-1.03-4.37-1.98-6.38-2.94.01,0,.01.02-.02-.3-.69-.78-1.34-1.24-2.29-1.85-1.12-1.45-1.93-2.75-2.74-4.05Z"/><path class="cls-11" d="M300.01,506.49c.53-5.71,2.52-6.93,7.34-4.6,1,.48,2.15.66,3.62.93.77.1,1.15.26,1.86.92,1.04.69,1.77.88,2.49,1.07,1.32.79,2.63,1.59,4.11,2.67-4.3,1.16-7.94,3.09-9.73,8.01-3.43-2.85-6.56-5.92-9.68-8.99Z"/><path class="cls-25" d="M272.56,509.87c1.16,1.23,1.98,2.53,3.15,4.3,1,.93,1.64,1.39,2.27,1.85,0,0,0-.03.02.32,1.01,2.41,2,4.46,2.88,6.83-1.34,1.55-2.57,2.8-3.8,4.04-3.35-3.06-6.43-6.52-10.17-8.99-1.43-.94-4.35.38-6.98.63,3.83-3,8.05-5.96,12.63-8.99Z"/><path class="cls-35" d="M237.56,538.02c.63.49.92.96,1.28,2.05-1.58,3.37-3.22,6.14-5.18,8.77-4.09-2.43-7.88-4.72-11.66-7.32,0-.7-.01-1.1.31-1.56,1.46-1.71,2.58-3.36,4.08-5,3.05.71,5.73,1.41,8.4,2.11.81.32,1.62.63,2.76.95Z"/><path class="cls-26" d="M291.94,511.9q-5.78-7.17-14.98-4.04c3.36-2.07,7.1-4.1,11.21-6.13,4.03.13,7.5.6,8.73,5.48-1.72,2-3.34,3.35-4.96,4.69Z"/><path class="cls-52" d="M234.84,536.65c-2.71-.28-5.39-.98-8.48-1.92-.42-.24-.5-.71-.21-.89,2.16-3.68,4.02-7.17,5.89-10.67,0,0,.35-.03.53-.07.89,4.35,1.6,8.75,2.27,13.55Z"/><path class="cls-52" d="M358.71,525.2c.52.19.88.66,1.26,1.44-.36.65-.76.99-1.43,1.36-.18-.82-.09-1.67.16-2.79Z"/><path class="cls-23" d="M315.18,504.54c-.59.07-1.31-.11-2.15-.57.6-.08,1.31.12,2.15.57Z"/><path class="cls-89" d="M284.03,470.09s.14-.16.14-.16c0,0-.23.06-.16.08.07.03.02.05.02.08Z"/><path class="cls-79" d="M531.16,576.5c1.96-2.45,3.92-4.89,6.55-7.43,2.85,2.07,5.08,4.19,7.23,6.39,5.74,5.9,11.44,11.83,17,18.01-.44,1-.71,1.74-1.26,2.67-2.4,3.75-4.53,7.3-6.9,10.88-.24.03-.71.07-.87-.24-3.33-3.87-6.44-7.5-9.72-10.98-4.73-5.03-9.58-9.94-14.28-15.2.82-1.57,1.54-2.84,2.26-4.11Z"/><path class="cls-86" d="M562.09,593.22c-5.72-5.92-11.42-11.86-17.16-17.76-2.14-2.2-4.38-4.32-6.94-6.54,3.25-4.24,6.87-8.42,11.1-12.59,4.06,3.27,7.47,6.58,10.97,9.8,3.65,3.36,7.38,6.62,11.08,9.92-2.26,4.27-4.52,8.54-6.53,13.28-.67,1.61-1.6,2.75-2.52,3.89Z"/><path class="cls-45" d="M571.42,575.87c-3.98-3.12-7.71-6.38-11.36-9.74-3.5-3.22-6.91-6.53-10.66-9.94,4.07-4.17,8.44-8.21,13.27-12.05,6.16,6.12,11.86,12.04,17.57,17.95-2.85,4.53-5.69,9.05-8.82,13.77Z"/><path class="cls-40" d="M580.52,561.93c-5.98-5.75-11.69-11.67-17.53-17.91,3.66-3.23,7.45-6.12,11.73-8.78,4.76,5.78,9.03,11.32,13.3,16.86-2.41,3.22-4.81,6.44-7.5,9.83Z"/><path class="cls-18" d="M496.69,569.95c1.34-3.9,3.03-7.7,5.43-11.72,9.36-.9,18.01-1.56,26.66-2.22-.53,3.43-1.05,6.86-2.18,10.64-4.99,1-9.38,1.65-13.98,2.02-1.91.05-3.65.24-5.31.71-2.8.8-5.56,1.77-8.33,2.66-.65-.66-1.29-1.33-2.29-2.1Z"/><path class="cls-49" d="M512.83,568.94c4.39-.64,8.77-1.29,13.61-1.93.4,1.38.36,2.76.23,4.92-.26,3.2-.44,5.64-1.07,8.07-4.2.34-7.94.67-12.05,1.01-2.82-1.35-5.26-2.7-7.67-4.41,2.34-2.79,4.65-5.22,6.96-7.66Z"/><path class="cls-51" d="M588.31,551.94c-4.57-5.38-8.84-10.92-13.25-16.78,2.66-2.19,5.47-4.07,8.75-5.69,1.8,1.93,3.16,3.59,4.43,5.31,2.32,3.15,4.57,6.34,6.86,9.52-2.16,2.5-4.33,4.99-6.78,7.65Z"/><path class="cls-54" d="M528.93,555.66c-8.8,1.01-17.45,1.68-26.55,2.34.64-2.67,1.72-5.34,2.91-8.36.1-.35.43-.48,1.06-.55,5.23-.39,9.84-.97,14.44-.95,3.14.01,6.28.85,9.41,1.32-.37,1.95-.75,3.9-1.27,6.2Z"/><path class="cls-31" d="M530.46,549.16c-3.39-.18-6.52-1.02-9.66-1.03-4.6-.02-9.21.56-14.28.89.86-2.57,2.18-5.14,3.71-7.96,7.51-.83,14.8-1.43,22.55-2.01-.39,3.29-1.23,6.55-2.31,10.1Z"/><path class="cls-18" d="M611.95,528.92c-3.13,2.84-6.26,5.69-9.7,8.29-1.12-1.9-1.71-3.73-2.81-5.16-2.05-2.66-4.41-5.08-6.64-7.6,3.8-1.83,7.6-3.67,11.91-5.19,2.75,3.43,4.99,6.55,7.24,9.67Z"/><path class="cls-39" d="M592.45,524.56c2.59,2.42,4.94,4.84,7,7.5,1.11,1.43,1.69,3.27,2.51,5.28-2.07,2.48-4.15,4.59-6.54,6.83-2.6-3.05-4.86-6.24-7.17-9.39-1.27-1.72-2.63-3.37-4.09-5.36,2.56-1.79,5.25-3.27,8.3-4.86Z"/><path class="cls-35" d="M612.27,528.82c-2.56-3.02-4.81-6.14-7.19-9.58,3.57-1.77,7.28-3.22,11.42-4.34,1.8,2.64,3.17,4.94,4.53,7.24-2.82,2.19-5.63,4.38-8.77,6.67Z"/><path class="cls-34" d="M621.38,522.07c-1.71-2.23-3.07-4.53-4.48-7.22,4.05-1.56,8.15-2.74,12.65-3.92,1.05,1.1,1.71,2.21,2.38,3.63-3.39,2.69-6.8,5.06-10.55,7.5Z"/><path class="cls-53" d="M526.05,580c.18-2.43.36-4.87.69-7.66,1.5.92,2.85,2.2,4.31,3.82-.6,1.61-1.32,2.88-2.45,4.46-.81.37-1.21.42-1.78.3-.4-.4-.6-.65-.77-.93Z"/><path class="cls-33" d="M551.05,504.06c-.09-.27.11-.65.65-1.06.1.3-.13.62-.65,1.06Z"/><path class="cls-1" d="M576.78,580.91c14-13.84,31.04-21.68,50.36-25.22-14.42,8.85-26.49,20.27-37.94,33.1-4.54-2.6-8.48-5.24-12.42-7.88Z"/><path class="cls-35" d="M561.93,593.48c1.08-1.4,2.01-2.54,2.98-3.99.85-.61,1.65-.91,3.09-1.31,2.31.92,4.01,1.89,5.61,2.99,3.37,2.3,6.7,4.68,10.04,7.02-1.24,2.69-2.49,5.38-3.74,8.45-.48,1.26-.96,2.14-1.99,3.05-6.03-4.56-11.51-9.15-16.99-13.73.28-.74.56-1.48.99-2.48Z"/><path class="cls-6" d="M583.89,597.97c-3.57-2.13-6.9-4.5-10.27-6.81-1.61-1.1-3.31-2.07-5.32-3.13,2.35-2.39,5.05-4.74,8.12-7.11,4.3,2.63,8.25,5.27,12.52,8.06-1.39,3.02-3.1,5.89-5.05,8.99Z"/><path class="cls-36" d="M553.05,607.1s.48-.04,1.06-.04c1.28.42,2.01.78,2.66,1.25,5.75,4.22,11.49,8.46,17.23,12.7-.94,4.11-1.88,8.22-3.02,12.67-7.31-4.92-14.42-10.18-21.79-15.93,1.11-3.88,2.49-7.26,3.86-10.64Z"/><path class="cls-9" d="M574.26,620.76c-6-3.99-11.74-8.23-17.49-12.45-.65-.47-1.38-.83-2.42-1.28,1.78-3.59,3.92-7.14,6.32-10.89,5.75,4.39,11.23,8.98,17.01,13.71-.85,3.65-2.01,7.15-3.42,10.9Z"/><path class="cls-1" d="M586.93,622.98c6.48-5.77,13.55-10.45,22.34-12.31-5.41,6.21-10.55,12.12-15.99,17.85-2.31-1.97-4.33-3.75-6.35-5.53Z"/><path class="cls-25" d="M588.12,638.73c-2.79-2.05-5.33-4.34-8.2-6.78.83-1.7,1.98-3.25,3.79-4.88,2.9,1.6,5.16,3.3,7.41,4.99-.92,2.14-1.84,4.29-3,6.67Z"/><path class="cls-11" d="M591.38,631.9c-2.52-1.54-4.77-3.23-7.39-4.99.53-1.28,1.42-2.51,2.63-3.83,2.33,1.68,4.35,3.46,6.38,5.62-.44,1.26-.9,2.15-1.62,3.2Z"/><path class="cls-3" d="M483.6,530.49c-.14.34-.45.37-.84.22-5.68-6.27-10.97-12.4-16.26-18.53,15.69-18.95,34.57-33.42,58.13-41.25,2.79-.93,5.71-1.43,8.98-2.05-.28.88-.86,1.84-1.68,2.47-20.59,15.9-36.74,35.42-48.33,59.14Z"/><path class="cls-51" d="M462.82,434.61c3.36-3.5,6.86-6.63,10.7-9.83,4.71,6.68,9.03,13.47,13.48,20.16.98,1.47,2.43,2.63,4,4.07-2.86,5.12-6.06,10.1-9.55,15.27-2.65-3.75-4.96-7.74-7.38-11.65-3.66-5.91-7.41-11.77-11.25-18.02Z"/><path class="cls-20" d="M466.24,512.37c5.56,5.94,10.84,12.07,16.38,18.39-.72,2.42-1.7,4.64-3.23,7.08-4.55-3.9-8.48-8.08-12.58-12.09-1.82-1.78-3.99-3.21-5.93-5.14.46-1.48.86-2.6,1.25-3.73,1.28-1.44,2.56-2.89,4.11-4.51Z"/><path class="cls-15" d="M462.09,516.46c-.36,1.54-.76,2.67-1.47,4.34-1.81,2.74-3.3,4.93-5.05,7.32-2.11,2.44-3.97,4.68-6.04,6.65.88-3.95,1.94-7.65,3.1-11.32,1.41-4.5,2.91-8.97,4.37-13.45.77-1.33,1.54-2.67,2.65-4.06,1.03,3.33,1.72,6.71,2.45,10.52Z"/><path class="cls-3" d="M534.54,468.33c.15.25.04.54-.39.76-.23-.35-.09-.56.39-.76Z"/><path class="cls-91" d="M437.08,561.02c-4.74-6.76-9.56-13.46-14.19-20.3-5.02-7.42-9.81-15.01-14.85-22.42-.72-1.06-2.28-1.56-3.83-2.34,3.63-7.12,7.63-14.21,12.14-21.63,2.31.98,4.63,1.92,5.86,3.64,4.09,5.76,7.69,11.86,11.67,17.7,4.89,7.18,9.96,14.22,14.87,21.66-1.69,3.77-3.31,7.2-5.18,10.85-2.34,4.42-4.41,8.63-6.49,12.84Z"/><path class="cls-86" d="M448.83,537c-4.99-7.1-10.07-14.15-14.95-21.32-3.98-5.84-7.58-11.95-11.67-17.7-1.22-1.72-3.54-2.66-5.72-3.97,3.31-5.92,6.99-11.84,10.94-17.93,3.64-.72,5.31,1.35,6.93,3.84,5.66,8.71,11.35,17.39,17.22,25.95,1.13,1.65,3.11,2.73,5.06,4.1-1.1,4.52-2.6,8.99-4.01,13.49-1.15,3.67-2.21,7.36-3.03,11.62.25,1,.21,1.41-.06,1.84-.24.01-.71.07-.71.07Z"/><path class="cls-27" d="M372.32,504.13c-2.53-2.6-4.77-5.06-7.11-7.83,8.44-1.64,16.96-3.02,25.5-4.27,3.39-.49,6.83-.69,10.67-1.02.17,3.71-.1,7.43-.89,11.57-3.77.77-7.05.94-10.26,1.5-4.79.83-9.52,1.94-14.28,2.94-1.12-.91-2.24-1.83-3.64-2.87Z"/><path class="cls-48" d="M376.11,507.3c4.61-1.29,9.35-2.4,14.13-3.23,3.21-.56,6.49-.72,10.17-1.06.48,4.01.53,8.02.23,12.66-5.13,1.53-9.92,2.44-14.72,3.35-1.45-1.58-2.91-3.16-4.66-4.88-1.87-2.28-3.44-4.41-5.17-6.83Z"/><path class="cls-29" d="M385.99,519.36c4.74-1.26,9.54-2.17,14.71-3.24.68.02.99.2,1.33.66,0,8.95-.03,17.62-.42,26.71-1.78-1.55-3.21-3.52-4.67-5.84-2.01-3.45-3.98-6.55-5.95-9.65-1.65-2.76-3.3-5.53-5-8.64Z"/><path class="cls-77" d="M552.9,606.79c-1.22,3.69-2.6,7.07-4.03,10.83-1.64,4.13-3.22,7.88-4.85,12.01-.54.11-1.04-.15-1.83-.88-1.59-3.57-2.88-6.66-4.23-10.12-1.36-3.12-2.68-5.87-4.03-8.97-1.33-2.46-2.63-4.57-4.08-7.02-1.07-3.74-2.36-7.11-2.8-10.58-.45-3.6-.08-7.3-.07-10.96.4-.05.8-.11,1.51-.17,5.1,4.95,9.96,9.86,14.69,14.89,3.27,3.48,6.38,7.11,9.72,10.98Z"/><path class="cls-19" d="M512.62,568.67c-2.09,2.71-4.4,5.14-7.08,7.98-4.1,4.04-7.83,7.68-11.7,11.63-1.46,2.45-2.76,4.59-4.26,6.85-.41.31-.54.56-.65,1.1-.06.24-.24.71-.61.72-2.54-1.04-4.76-2-6.85-3.19-1.29-.74-2.37-1.84-3.5-3.1,1.01-1.73,1.97-3.14,3.25-4.68,2.52-2.11,4.73-4.08,6.93-6.05,3.58-2.4,7.15-4.81,10.78-7.55,2.82-1.23,5.58-2.2,8.38-3,1.66-.47,3.39-.66,5.31-.71Z"/><path class="cls-15" d="M487.92,579.68c-1.98,2.22-4.18,4.2-6.9,6.11-1.29-1.03-2.07-2-2.64-3.3-.53-4.76-1.27-9.18-2.01-13.6,1.67,1.3,3.33,2.6,5.28,4.04,2.21,2.27,4.13,4.39,6.27,6.76Z"/><path class="cls-56" d="M476.25,568.66c.86,4.64,1.6,9.07,1.75,13.63-4.44-1.35-8.28-2.84-12.11-4.32.62-2.67,1.1-4.75,1.76-7.12.87-2.56,1.56-4.83,2.25-7.1,1.82,1.33,3.63,2.66,5.76,4.1.37.26.42.42.59.8Z"/><path class="cls-54" d="M469.9,563.39c-.68,2.64-1.37,4.9-2.62,7.41-1.54-.57-2.6-1.29-3.47-2.19-6.68-6.86-13.32-13.76-19.97-20.65,1.61-3.43,3.23-6.86,4.92-10.63.08-.33.55-.39,1.12-.26,3.59,3.36,6.54,6.66,9.66,9.8,3.75,3.78,7.65,7.43,11.48,11.13-.37,1.67-.74,3.34-1.11,5.38Z"/><path class="cls-31" d="M471.27,558c-4.1-3.7-7.99-7.34-11.74-11.12-3.12-3.14-6.07-6.44-9.42-9.82-.29-.56-.25-.98-.28-1.7,1.78-2.55,3.64-4.78,6.07-7.08,6.79,6.63,13.01,13.31,19.22,19.99,0,0,.07.38.12.56-1,2.93-2.05,5.67-3.14,8.78-.21.37-.39.38-.82.39Z"/><path class="cls-2" d="M475.38,548.02c-6.48-6.43-12.7-13.12-19.23-19.94,1.17-2.34,2.66-4.53,4.41-6.92,2.26,1.39,4.43,2.81,6.25,4.59,4.1,4.01,8.03,8.19,12.41,12.37-.94,3.26-2.26,6.45-3.84,9.9Z"/><path class="cls-77" d="M167.92,582.99c-1.98,6.4-3.96,12.79-5.95,19.6-.28.61-.55.82-.93,1.26-1.57-3.99-3.02-8.21-4.74-12.68-1.77-4.74-3.28-9.23-5.05-13.95-2.08-4.77-3.89-9.31-5.98-14.07-.29-.64-.31-1.07-.36-1.8,4.41-5.8,9-11.17,13.24-16.8,7.53-10.01,14.85-20.19,22.56-30.46,1.25,1.01,2.2,2.19,3.21,4.12.08,9.44.11,18.13.07,27.18-.43,1.76-.79,3.16-1.41,4.78-2.72,5.42-5.17,10.63-7.91,16.04-2.44,5.73-4.6,11.26-6.77,16.78Z"/><path class="cls-72" d="M130.9,534.67c-.35.16-.67-.02-.95-.48.35-.14.67,0,.95.48Z"/><path class="cls-10" d="M231.97,522.79c-1.79,3.87-3.66,7.36-6.04,11.06-.52.2-.97.19-1.15-.07-1.05-.1-1.92.06-3.15.08-3.15-1.01-5.91-2.12-8.78-2.65-1.51-.28-3.2.47-5.13.62-3.46-2.03-6.61-3.94-9.6-6.13,1.39-2.1,2.63-3.9,3.87-5.7,1.79-1.9,3.58-3.81,5.67-5.86,6.75,1.84,13.22,3.76,19.63,5.85,1.63.53,3.08,1.6,4.68,2.79Z"/><path class="cls-37" d="M201.59,519.95c-.85,1.85-2.09,3.65-3.78,5.9-3.24,4.68-6.03,8.91-8.97,13.44-1.69,2.11-3.22,3.92-4.76,5.73-.03-8.69-.06-17.38-.07-26.53,5.74.16,11.46.79,17.59,1.46Z"/><path class="cls-85" d="M168.31,583.03c1.78-5.57,3.94-11.09,6.79-16.82,11.75,2.79,22.82,5.79,33.88,9.19,0,1.46,0,2.52-.3,3.8-1.75,4.75-3.22,9.28-4.69,13.8,0,0-.01,0-.02-.01-11.77-3.31-23.53-6.62-35.67-9.96Z"/><path class="cls-79" d="M204.38,593.01c1.09-4.53,2.56-9.05,4.7-13.8,2.24.21,4.04.26,5.32,1.11,4.21,2.82,8.18,6,12.34,8.89,4.36,3.02,8.84,5.86,13.46,8.96-.58,2.74-1.36,5.29-2.18,8.23-.77,3.12-1.51,5.86-2.24,8.6-7.31-5.54-14.55-11.18-21.96-16.59-2.83-2.07-6.03-3.62-9.44-5.41Z"/><path class="cls-46" d="M235.73,622.03s-.4.01-.59.03c-.22-.7-.52-1.58-.22-2.11.56-.97,1.47-1.73,2.44-3.16,1.37-2.65,2.53-4.71,3.98-6.63,4.8,4.52,9.31,8.89,13.81,13.63-.48,2.33-.95,4.29-1.75,6.17-1.35-.86-2.27-1.9-3.42-2.38-4.71-1.95-9.5-3.72-14.25-5.56Z"/><path class="cls-75" d="M241.05,610.02c-1.16,2.07-2.32,4.13-3.55,6.38-.57-.18-1.07-.55-1.65-1.16.65-2.98,1.39-5.72,2.47-8.76,1.3.35,2.25,1.01,3.12,1.9-.18.7-.29,1.17-.39,1.64Z"/><path class="cls-85" d="M409.97,565.01c2.3,5.75,4.61,11.49,6.95,17.61-8.25,2.99-16.52,5.68-24.84,8.18-2.32.7-4.81.81-7.66.79-1.77-4.8-3.11-9.19-4.44-13.98,0-1.46,0-2.53.41-3.6,10.14-3,19.86-6,29.59-9Z"/><path class="cls-79" d="M379.97,578.01c1.34,4.39,2.67,8.79,4.02,13.58,0,.57,0,.74-.01,1.17-2.56,1.98-5.28,3.49-7.63,5.45-6.56,5.47-12.97,11.12-19.85,16.36-1.47-3.79-2.52-7.23-3.56-10.9.02-.22.03-.67.26-.76.51-.28.68-.54.77-.88.04,0,.05-.08.34-.24,2.73-2.69,5.17-5.22,7.93-7.89,5.15-3.6,9.98-7.05,15.49-10.99-2.44.19-4.06.31-5.67.06,1.22-4.38,4.19-5.33,7.93-4.95Z"/><path class="cls-46" d="M355.14,616.25c.29,1.73.58,3.47.69,5.87-4.43,4.05-8.68,7.42-13.23,10.82-.91.05-1.51.07-2.3-.28-.59-2.74-.99-5.1-1.26-7.81.75-2.52,1.36-4.69,2.27-7.01,1.75-2.05,3.21-3.95,4.94-6.03,1.1-1.74,1.92-3.3,3.03-4.64,2.15,3.16,4.01,6.12,5.87,9.08Z"/><path class="cls-17" d="M342.89,632.92c4.25-3.37,8.5-6.75,12.9-10.41,2.81-.97,5.48-1.66,9.06-2.58-2.76,2.51-4.8,4.36-7.02,6.49-2.85,3.29-5.52,6.31-8.77,9.6-2.45-.85-4.31-1.98-6.17-3.1Z"/><path class="cls-15" d="M355.37,616.08c-2.09-2.8-3.95-5.75-5.99-9.19.42-1.24,1.03-2,1.95-2.8.74-.09,1.16-.15,1.58-.2,1.06,3.44,2.12,6.89,3.25,10.73-.14.7-.35,1-.8,1.47Z"/><path class="cls-32" d="M343.28,648.83c-2.47-2.41-4.68-5.03-7.09-8.11.65-1.6,1.51-2.75,2.71-3.76,2.87,1.44,5.4,2.73,7.93,4.02-1.09,2.54-2.18,5.08-3.54,7.85Z"/><path class="cls-34" d="M346.98,640.68c-2.69-.99-5.22-2.28-8.06-4.09.31-1.53.93-2.54,1.55-3.55.61-.02,1.21-.05,2.12-.1,2.16,1.1,4.02,2.22,6.2,3.27-.33,1.34-.99,2.75-1.81,4.46Z"/><path class="cls-9" d="M443.57,548.18c6.91,6.67,13.55,13.57,20.23,20.43.88.9,1.94,1.62,3.29,2.49-.1,2.13-.58,4.21-1.2,6.88,3.83,1.48,7.67,2.98,11.91,4.66,1.17,1.16,1.95,2.13,2.92,3.29-.77,1.6-1.73,3.01-3.05,4.78-.82,1.01-1.28,1.64-1.94,2.39-.46.32-.61.59-.68,1.25-.03.77-.05,1.21-.34,1.78-1.09.72-1.9,1.32-3.03,1.79-1.87-2.05-3.26-4.14-5.02-5.84-1.17-1.13-2.88-1.7-4.46-2.88-8.49-8.99-16.87-17.61-25.25-26.24.03-.43.05-.86.11-1.62,2.1-4.53,4.18-8.74,6.52-13.16Z"/><path class="cls-49" d="M436.67,563.18c8.65,8.4,17.03,17.03,25.52,26.4-1.01,6.98-2.13,13.2-3.25,19.42-1.7-1.21-3.66-2.19-5.05-3.68-7.63-8.19-15.13-16.52-22.83-25.1,1.67-5.81,3.5-11.31,5.61-17.04Z"/><path class="cls-37" d="M409.83,564.67c-9.59,3.34-19.31,6.33-29.73,9.12-1.84-3.41-2.98-6.6-4.16-10.15-.34-1.79-.65-3.21-.56-4.64,8.47-2.51,16.54-4.96,24.57-7.59,1.14-.37,2.02-1.58,3.02-2.4,2.24,5.11,4.48,10.21,6.86,15.65Z"/><path class="cls-48" d="M402.93,548.65c-.96,1.19-1.83,2.39-2.98,2.76-8.02,2.62-16.1,5.08-24.84,7.36-1.83-3.74-2.98-7.26-3.89-11.05,6.95-2.43,13.68-4.51,20.35-6.8,1.91-.66,3.61-1.93,5.41-2.93,1.42,1.97,2.85,3.94,4.6,5.96.66,1.48.98,2.9,1.35,4.69Z"/><path class="cls-56" d="M459.01,609.33c1.05-6.55,2.17-12.77,3.29-19.38,1.47.43,3.18,1,4.35,2.13,1.76,1.7,3.15,3.79,4.98,6.17-.63,2.23-1.54,4-2.67,6.05-1.45,3.1-2.68,5.92-3.99,8.74-.08,0-.09.16-.43.1-2.04-.76-3.73-1.47-5.42-2.17-.02-.44-.03-.88-.12-1.64Z"/><path class="cls-89" d="M458.85,611.21c1.97.46,3.66,1.17,5.62,2.23-.55,1.84-1.37,3.33-2.19,4.81-1.2-.79-2.39-1.58-3.94-2.45-.16-1.5.04-2.93.52-4.6Z"/><path class="cls-28" d="M462.28,618.62c.82-1.85,1.64-3.33,2.53-5.12.08-.3.08-.46.5-.43,4.48,3.99,8.55,7.96,12.57,12.32-.69,3.81-1.34,7.23-1.99,10.65-3.09-2.63-6.17-5.26-9.27-7.88-1.61-1.37-3.25-2.72-5.21-4.11.06-1.71.46-3.39.86-5.42Z"/><path class="cls-13" d="M490.09,638.65c-.95-.18-1.96-.69-3.38-1.39-2.58,1.91-5.46,4.05-8.83,6.34-1.26-.09-2.03-.32-2.8-.56.1-1.2.21-2.4.6-3.53.43.57.58,1.08.99,2.54.54-6.53,2.7-8.89,8.63-9.95.78.12,1.23.15,1.85.42,1.03.67,1.89,1.1,2.75,1.53.04,1.43.09,2.85.19,4.59Z"/><path class="cls-25" d="M484.97,632.01c-5.6,1.15-7.75,3.51-8.3,10.04-.41-1.46-.56-1.96-.73-2.79-.02-1.05-.01-1.77-.02-2.86.63-3.78,1.28-7.2,2.25-11.02.52-.41.71-.41,1.21-.3,2.07,2.39,3.83,4.66,5.59,6.93Z"/><path class="cls-25" d="M475.07,643.36c.79-.08,1.56.16,2.62.52-.15.77-.59,1.42-1.36,2.1-.65-.75-.96-1.53-1.26-2.62Z"/><path class="cls-92" d="M538.01,618.99c1.29,3.09,2.58,6.18,3.92,9.65-6.9,2.36-13.82,4.37-20.77,6.3-1.74.48-3.56.7-5.75,1.05-1.07-3.39-1.75-6.79-2.02-10.6,8.47-2.4,16.55-4.4,24.63-6.4Z"/><path class="cls-84" d="M490.22,633.91c-1.18-.28-2.04-.71-2.71-1.58-1.06-5.07-2.31-9.69-3.18-14.33,4.44-2.45,8.68-4.66,12.53-7.41,3.25-2.33,6.4-3.23,10.21-1.35.3.5.56.69.93,1.15.68,1.77,1.32,3.2,1.97,5,.67,2.46,1.33,4.54,2,6.63-5.06,2.58-10.15,5.09-15.16,7.77-2.18,1.16-4.19,2.65-6.6,4.13Z"/><path class="cls-87" d="M512,622.33c-.69-2.4-1.35-4.49-1.61-6.95,8.13-2.05,15.86-3.71,23.59-5.38,1.31,2.75,2.63,5.51,3.99,8.62-8.03,2.36-16.1,4.36-24.58,6.37-.72-.78-1.04-1.56-1.39-2.66Z"/><path class="cls-75" d="M302.87,594.77c-.41-.31-.81-.61-1.52-1.36-2.89-4.14-5.48-7.83-8.24-11.83-2.31-2.74-4.46-5.19-6.42-7.93,2.21-2.04,4.23-3.78,6.24-5.51-.16-.25-.32-.49-.48-.74-3.06.97-6.11,1.93-9.43,2.66-3.18-2.85-6.1-5.45-9.14-8.37-2.07-2.02-4.01-3.74-5.7-5.79,9.58-.55,18.9-.77,28.4-.84.28.44.43.71.62,1.32.66,2.45,1.33,4.55,1.98,7.02.68,3.13,1.38,5.87,2.03,9.01.57,3.46,1.18,6.53,1.72,10.05.09,3.49.24,6.53.31,9.91-.18,1.03-.28,1.72-.38,2.41Z"/><path class="cls-91" d="M293.27,581.88c2.59,3.7,5.18,7.39,7.83,11.42-5.2,6.44-10.43,12.58-15.73,18.65-1.19,1.37-2.61,2.54-4.49,3.73-2.02-2.27-3.47-4.47-5.03-6.99-.71-1.76-1.3-3.21-1.86-5,5.55-7.14,11.02-13.95,16.61-20.68.55-.66,1.77-.77,2.67-1.14Z"/><path class="cls-30" d="M302.9,595.25c.07-1.17.17-1.86.78-2.9,4.11.32,7.71.98,11.15,1.94-3.09,4.08-6.03,7.86-9.32,12.09,6.16,1.73,11.33,3.19,16.49,5.02-1.01,3.11-2.01,5.85-3.13,8.85-.37.75-.63,1.25-1.33,1.74-6.5-1.33-12.57-2.66-18.63-4,4.49-6.85,4.5-14.52,3.99-22.75Z"/><path class="cls-85" d="M298.64,618.21c6.34,1.13,12.4,2.46,18.87,4.15-.56,2.79-1.53,5.23-2.5,7.67-.25,1.11-.5,2.22-.89,3.65-6.57-1.25-13-2.81-19.78-4.53,1.11-3.68,2.57-7.21,4.31-10.95Z"/><path class="cls-9" d="M275.97,609.02c1.45,2.2,2.9,4.4,4.6,6.81.31.64.37,1.07.1,1.87-1.74,1.47-3.14,2.58-4.56,3.68-3.74,2.88-7.48,5.75-11.49,8.37-1.28-3.38-2.29-6.49-2.89-9.63,5.03-3.72,9.63-7.4,14.24-11.09Z"/><path class="cls-39" d="M264.87,630c3.74-2.88,7.49-5.75,11.23-8.63,1.42-1.09,2.82-2.21,4.59-3.35,1.35,2.04,2.35,4.12,3.4,6.55-5.49,4.7-11.03,9.03-17.18,13.11-1.08-2.74-1.56-5.21-2.04-7.68Z"/><path class="cls-74" d="M264.61,629.74c.74,2.74,1.22,5.21,1.94,7.97.52,3.02.79,5.76,1.18,8.9-1.06-.27-2.51-.72-3.35-1.7-1.13-1.33-1.79-3.06-2.94-4.79-1.5-2.04-2.71-3.91-4.34-6.2-1.41-1.57-2.39-2.72-3.37-3.88.47-1.96.95-3.91,1.68-6.53,1.15-3.2,2.06-5.73,2.98-8.12.99,1.68,1.96,3.21,2.92,4.74,1.02,3.11,2.03,6.23,3.31,9.6Z"/><path class="cls-17" d="M253.4,629.97c1.31,1.23,2.29,2.38,3.37,3.83-1.94,1.6-3.99,2.89-6.4,4.17-4.97-5.14-9.59-10.27-14.43-15.67,4.54,1.57,9.32,3.34,14.03,5.29,1.15.48,2.07,1.52,3.42,2.38Z"/><path class="cls-84" d="M315.37,630.02c.6-2.43,1.57-4.87,2.57-7.67.29-.85.55-1.35,1.27-2.13,2.02-.2,3.98-.68,5.07.08,4.19,2.92,8.1,6.25,12.05,9.76-1.16,3.54-2.25,6.74-3.34,9.93-3.63-2.13-7.26-4.27-10.9-6.39-2.11-1.22-4.24-2.4-6.72-3.59Z"/><path class="cls-69" d="M333.02,640.35c1.07-3.55,2.15-6.75,3.52-10.55.97-1.94,1.66-3.27,2.35-4.6.41,2.36.81,4.72,1.4,7.46-.44,1.39-1.06,2.4-1.71,3.78-.89,1.53-1.75,2.68-2.72,4.13-.66.82-1.22,1.35-1.87,2.14-.38-.49-.67-1.25-.97-2.36Z"/><path class="cls-66" d="M296.4,554.91c-9.32.21-18.64.43-28.57.92-1.75-.42-2.89-1.12-4.04-1.82-.95-1.03-1.89-2.07-3.14-3.43,2.35-3.6,4.75-7.27,7.23-11.28,3.05-4.04,6.03-7.74,9.1-11.76,1.33-1.56,2.56-2.81,4.24-4.27,4.88,8.44,9.3,17.09,13.73,26.13.49,2.09.97,3.81,1.45,5.52Z"/><path class="cls-43" d="M222,541.83c3.79,2.29,7.58,4.59,11.82,7.32,3.35,2.92,6.25,5.4,9.15,7.88,2.59,3.47,5.18,6.93,7.89,11.06-.58,2.07-1.29,3.49-2.33,4.87-2.58-1.68-4.75-3.41-7.06-4.94-7.75-5.15-13.25-13.83-23.51-15.4.35-1.78.69-3.19,1.3-4.8,1.09-2.13,1.91-4.06,2.73-5.99Z"/><path class="cls-40" d="M263.46,554.05c1.48.66,2.62,1.36,4.11,2.12,2.29,1.78,4.24,3.49,5.96,5.55-2.01,2.01-3.86,3.6-5.56,5.34-2.97,3.04-5.86,6.17-9.03,9.07-2.49-3.02-4.72-5.85-6.96-8.68,3.72-4.45,7.43-8.91,11.48-13.41Z"/><path class="cls-69" d="M251.76,567.64c2.45,2.66,4.69,5.49,7.3,8.83,1.57,2.43,2.77,4.35,3.63,6.39-2.08,1.57-3.81,3.02-5.66,4.55-3.74-2.38-7.44-4.73-10.93-7.39,1.07-2.54,1.92-4.78,2.77-7.03.7-1.42,1.41-2.84,2.14-4.6.2-.43.36-.51.75-.77Z"/><path class="cls-9" d="M243.11,556.73c-3.05-2.18-5.95-4.66-8.99-7.44,1.5-3.07,3.15-5.84,4.84-8.95,3.53,1.08,7.11,2.33,10.42,4.1.71.38,1.06,3.08.46,3.96-1.92,2.86-4.35,5.38-6.73,8.33Z"/><path class="cls-75" d="M335.25,553.63c.46.65.92,1.3,1.61,2.15,1.73,3.7,3.23,7.2,4.98,11.32,1.24,3.07,2.23,5.52,3.03,8.25-2.78,1.69-5.36,3.1-8.33,4.59-4.43,2.44-7.97.72-11.55-1.46-.06-.21-.43-.45-.42-.66-.11-.49-.3-.69-.63-1.14-.65-1.45-1.26-2.58-1.9-4.08-1.36-3.12-2.68-5.87-4.04-8.97-1.22-2.49-2.42-4.64-3.7-7.09-.17-.71-.26-1.12.12-1.53,4.94,0,9.42.16,13.88-.06,2.33-.11,4.64-.87,6.96-1.33Z"/><path class="cls-85" d="M345.06,575.08c-.99-2.45-1.98-4.9-2.97-7.71,1.11-1.01,2.38-1.49,3.32-2.34,5.15-4.71,10.52-9.23,15.18-14.39,2.33-2.58,2.94-6.78,8.03-6.28,1.07,1.44,1.73,2.55,2.38,3.65,1.15,3.51,2.3,7.03,3.72,10.77.58,1.65.89,3.08.87,4.82-2.68-.16-5.86-1.83-7.2-.88-3.5,2.48-6.2,6.11-9.65,9.28-4.84,1.03-9.25,2.06-13.67,3.08Z"/><path class="cls-27" d="M371.22,547.72c-.89-.83-1.55-1.94-2.24-3.38-1.03-2.75-2.02-5.16-3.03-7.94,8.08-3.02,16.18-5.67,24.65-8.36,2.35,3.06,4.32,6.16,6.33,9.61-1.76,1.34-3.46,2.62-5.37,3.28-6.66,2.29-13.4,4.36-20.35,6.8Z"/><path class="cls-55" d="M335.17,553.29c-2.23.8-4.54,1.56-6.87,1.67-4.46.21-8.94.06-14.13-.16-1.95-2.07-3.18-3.93-4.48-6.11-8.39-10.11-16.7-19.9-25.02-29.68,2.32-2.17,4.64-4.35,7.11-6.82,1.77-1.64,3.39-2.99,5.17-4.61.87-.6,1.57-.93,2.66-1.18,3.51,3.15,6.63,6.23,10.05,9.44,2.69,3.07,5.07,6,7.74,9.09,2.53,3.34,4.77,6.53,7.3,9.89,2.37,3.74,4.46,7.31,6.83,11.05,1.37,2.47,2.45,4.77,3.61,7.42Z"/><path class="cls-1" d="M284.35,518.94c8.64,9.86,16.96,19.64,24.9,29.75-5.02.32-9.67.32-14.32.32-4.42-8.65-8.84-17.31-13.6-26.05-1.33-2.15-2.32-4.21-3.35-6.61,1.99.61,4.01,1.56,6.36,2.59Z"/><path class="cls-1" d="M277.95,515.69c-.6-.13-1.24-.6-1.93-1.38.6.14,1.25.59,1.93,1.38Z"/><path class="cls-27" d="M222.01,541.53c-.83,2.23-1.65,4.16-3.09,6.14-10.39-2.86-20.16-5.76-29.93-8.67,2.79-4.23,5.58-8.46,8.67-12.84,3.44,1.75,6.59,3.65,10.36,5.83,5.07,2.87,9.52,5.45,13.96,8.04,0,.4.02.8.02,1.5Z"/><path class="cls-5" d="M222.32,539.96c-4.78-2.53-9.22-5.11-13.97-7.85,1.3-.43,3-1.18,4.5-.9,2.87.53,5.63,1.64,9.15,2.65,1.46.16,2.2.16,2.95.17,0,0,.46.01.68,0s.31.45.35.68c-1.08,1.88-2.2,3.54-3.66,5.25Z"/><path class="cls-29" d="M507.96,610.04c-.32-.11-.58-.3-.92-1.16-1.1-2.69-2.07-4.8-2.66-6.95,4.07-.94,7.8-1.7,11.42-2.79,3.05-.92,5.98-2.22,8.96-3.36-2.26-2.93-4.51-5.86-6.92-9.09-1.41-2.1-2.67-3.9-3.93-5.7,3.74-.34,7.48-.67,11.68-1.01.62.28.82.53,1.22.93.16,3.83-.22,7.54.24,11.14.44,3.47,1.73,6.84,2.57,10.87-1.45,1.13-2.8,1.71-4.21,2.12-5.81,1.69-11.64,3.33-17.46,4.98Z"/><path class="cls-10" d="M513.55,581.01c1.63,1.8,2.89,3.6,3.96,5.84-6.32,2.03-12.45,3.62-18.87,5.04-1.74-1.42-3.19-2.67-4.65-3.92,3.73-3.64,7.45-7.28,11.52-10.97,2.78,1.31,5.23,2.66,8.04,4.01Z"/><path class="cls-44" d="M508,610.38c5.78-2,11.61-3.64,17.42-5.33,1.41-.41,2.76-.99,4.37-1.79,1.52,1.82,2.82,3.93,4.15,6.39-7.69,2.01-15.42,3.68-23.56,5.35-1.06-1.42-1.7-2.85-2.38-4.62Z"/><path class="cls-45" d="M493.84,588.28c1.6.94,3.05,2.19,4.84,3.96,2,3.59,3.66,6.66,5.32,9.74.97,2.11,1.94,4.22,2.94,6.69-3.69-1.3-6.83-.4-10.08,1.93-3.85,2.75-8.09,4.96-12.79,7.22-1.2-1.24-1.78-2.29-2.26-3.75,1.13-3.61,2.18-6.82,3.44-10.16.39-.41.57-.69.94-1.04.46-.26.56-.52.59-1.16.71-1.81,1.31-3.28,1.91-4.76,0,0,.18-.46.45-.79.54-.53.66-.79.62-1.13,1.31-2.14,2.62-4.29,4.07-6.74Z"/><path class="cls-5" d="M485.99,602.93c-.18.28-.35.56-1.13.96-6.18.32-6.54-5.51-9.88-7.89.02-.44.03-.88.27-1.77.47-.65.63-.92.68-1.24.46-.64.92-1.28,1.69-1.96,1.49.9,2.57,1.99,3.86,2.73,2.09,1.19,4.31,2.15,6.85,3.19-.23,1.46-.83,2.94-1.7,4.85-.46.63-.58.86-.63,1.13Z"/><path class="cls-5" d="M489.58,595.13c.22.22.1.49-.38.77-.16-.21-.02-.46.38-.77Z"/><path class="cls-37" d="M208.98,575.01c-11.07-3-22.13-6-33.6-9.01,2.05-5.21,4.5-10.41,7.57-15.68,11.08,2.85,21.55,5.76,31.88,9.01-1.37,3.78-2.61,7.23-3.98,11-.72,1.77-1.29,3.23-1.87,4.68Z"/><path class="cls-48" d="M214.97,558.99c-10.47-2.91-20.94-5.82-31.76-8.89.01-1.55.37-2.96.8-4.72,1.61-2.17,3.14-3.98,4.83-6.09,9.92,2.6,19.69,5.51,29.81,8.57,0,1.57-.33,2.98-.95,4.96-1.1,2.43-1.91,4.3-2.73,6.17Z"/><path class="cls-35" d="M224.78,533.78c-.57.25-1.31.24-2.43.23.5-.17,1.38-.33,2.43-.23Z"/><path class="cls-90" d="M208.98,575.41c.57-1.85,1.15-3.3,2.22-5.12,1.18-.77,1.95-1.09,2.55-1.6,4.68-4.02,8.87-2.7,10.87,3.57-.73-.04-1.15-.08-1.75-.39-.9-.27-1.62-.28-2.34-.28.85.78,1.69,1.55,2.85,2.46,7.3,5.04,15.27,8.8,19.52,17.05-1.06,2.52-1.98,4.71-2.9,6.9-4.43-2.92-8.91-5.76-13.26-8.78-4.17-2.89-8.13-6.07-12.34-8.89-1.27-.85-3.08-.91-5.03-1.33-.39-1.07-.38-2.13-.38-3.59Z"/><path class="cls-15" d="M240.2,598.17c.72-2.37,1.64-4.56,3.04-6.99,2.28,2.45,4.07,5.14,5.56,7.96-1.17,1.65-2.03,3.18-3.18,4.89-1.56,1.49-2.83,2.81-4.09,4.12-.95-.65-1.9-1.31-3.16-2.05.47-2.64,1.25-5.19,1.83-7.93Z"/><path class="cls-12" d="M241.44,608.38c1.34-1.55,2.61-2.86,4.22-3.99,3.72,4.6,6.68,9.5,12.7,10.86-.9,2.54-1.8,5.07-2.95,7.9-4.76-4.08-9.27-8.45-14.07-12.97-.19-.62-.08-1.09.1-1.79Z"/><path class="cls-86" d="M359.15,571.99c3.02-3.17,5.72-6.79,9.22-9.28,1.33-.94,4.52.73,7.23,1.25,1.51,3.23,2.65,6.42,4.08,9.83.28,1.29.29,2.35.29,3.81-3.74.02-6.71.97-8.22,5.56-5.11,2.38-9.92,4.18-15.06,6.06-2.11.96-3.9,1.84-5.76,2.35-1.14-3.83-2.2-7.28-3.05-11.01,3.89-3.04,7.58-5.8,11.26-8.57Z"/><path class="cls-5" d="M357.02,589.15c4.81-1.8,9.63-3.59,14.72-5.6,1.9-.33,3.52-.46,5.97-.65-5.51,3.94-10.34,7.39-15.78,10.84-2.04-1.54-3.47-3.06-4.91-4.59Z"/><path class="cls-25" d="M356.7,589.22c1.76,1.45,3.19,2.97,4.92,4.65-2.15,2.69-4.6,5.21-7.33,7.52-2.01-2.75-3.72-5.29-5.26-8.03.78-.61,1.39-1.02,1.99-1.42,1.79-.88,3.57-1.76,5.68-2.72Z"/><path class="cls-18" d="M348.85,593.58c1.72,2.53,3.43,5.07,5.15,7.98,0,.38,0,.46-.27.47-.43.33-.6.65-.78.97,0,0-.02.45-.03.67-.44.28-.86.33-1.96.34-3.79-1.71-6.91-3.37-9.91-5.3.72-1.01,1.32-1.76,2.29-2.52,2.08-.88,3.79-1.75,5.5-2.61Z"/><path class="cls-25" d="M353.19,602.91c-.05-.23.12-.55.51-.88.17.34,0,.6-.51.88Z"/><path class="cls-87" d="M339.03,624.85c-.82,1.68-1.51,3.01-2.41,4.61-4.23-2.91-8.14-6.23-12.33-9.16-1.09-.76-3.05-.28-4.96-.34.65-2.71,1.66-5.44,2.92-8.75,1.07-1.79,1.89-3.01,3.05-4.2,1.86,1.25,3.31,2.56,4.9,3.67,3.57,2.49,7.2,4.88,10.81,7.31-.61,2.17-1.23,4.33-1.97,6.85Z"/><path class="cls-29" d="M341.3,617.84c-3.9-2.28-7.54-4.67-11.1-7.16-1.59-1.11-3.04-2.41-4.85-4.01,1.35-2.5,3.01-4.61,4.91-6.48,2.02,1.05.45,6.04,4.98,3.93,3.78,2.73,7.26,5.31,10.73,7.89-1.46,1.9-2.92,3.79-4.67,5.84Z"/><path class="cls-49" d="M346.24,611.81c-3.75-2.39-7.23-4.96-10.85-7.98,1.75-1.91,3.65-3.38,5.56-4.85,3.12,1.67,6.24,3.33,9.71,5.08-.25.84-.86,1.6-1.57,2.63-.93,1.83-1.75,3.38-2.85,5.12Z"/><path class="cls-24" d="M474.69,596.12c3.62,2.25,3.98,8.09,9.94,7.89-.65,3.22-1.69,6.43-2.93,10.09-.2.45-.42.41-.62.09-1.52-1.45-2.83-2.6-4.17-3.73-2.57-2.16-5.16-4.31-7.74-6.46.91-1.77,1.82-3.54,2.77-5.64.85-.93,1.66-1.53,2.75-2.25Z"/><path class="cls-24" d="M475.71,593.1c.15.21,0,.48-.46.8-.16-.21,0-.48.46-.8Z"/><path class="cls-14" d="M468.96,604.3c2.79,1.87,5.38,4.01,7.95,6.17,1.34,1.12,2.65,2.27,4.19,4.1-.54,3.92-1.29,7.15-2.04,10.38-.19,0-.38.01-.85.03-4.35-3.96-8.41-7.92-12.81-11.92.89-2.84,2.12-5.66,3.57-8.76Z"/><path class="cls-74" d="M479.37,625.07c.44-3.35,1.19-6.58,1.92-10.18-.02-.37.21-.34.31-.38.68,1.01,1.26,2.06,2.09,3.31,1.5,4.82,2.75,9.44,3.64,14.27-.81.17-1.26.14-2.04.02-2.09-2.36-3.85-4.63-5.92-7.03Z"/><path class="cls-41" d="M293.11,581.58c-.74.67-1.96.78-2.51,1.44-5.59,6.73-11.06,13.54-16.89,20.56-1.36-.41-2.41-1.04-3.65-1.97-.74-2.05-1.29-3.8-1.7-5.88-.38-2.8-.89-5.26-1.05-7.75,1.84-1.25,3.45-2.35,4.8-3.71,4-4.03,7.89-8.17,11.98-12.03.9.73,1.65,1.23,2.4,1.73,2.15,2.44,4.3,4.89,6.61,7.63Z"/><path class="cls-81" d="M283.94,571.99c-3.94,4.1-7.83,8.23-11.83,12.27-1.35,1.36-2.96,2.46-5.07,3.53-1.75-1.79-2.88-3.42-4.01-5.05-1.2-1.92-2.4-3.83-3.72-6.07,2.8-3.42,5.68-6.55,8.65-9.59,1.7-1.74,3.55-3.34,5.68-5.04,3.27,2.56,6.19,5.17,9.41,8.24.5.88.69,1.3.88,1.71Z"/><path class="cls-18" d="M322.07,572.97c.6,1.13,1.2,2.26,1.88,3.92.16.82.34,1.02.61,1.15,0,0,.36.24.4.83.33,1.78.63,2.98.47,4.16-3.56-.31-6.66-.75-9.77-.87-4.21-.17-8.44-.11-12.66-.15-.61-3.07-1.22-6.14-1.34-9.6,7.13-.08,13.77.24,20.42.56Z"/><path class="cls-28" d="M302.94,582.46c4.28-.41,8.51-.48,12.72-.3,3.11.13,6.22.56,9.82,1.24.43,1.11.37,1.84-.04,2.58-3.38,2.68-6.42,5.36-9.71,8.03-.42,0-.58,0-.75,0-3.6-.66-7.19-1.32-11.22-1.98-.58-3.04-.73-6.07-.82-9.56Z"/><path class="cls-35" d="M322.04,572.6c-6.61.05-13.25-.27-20.34-.59-1.14-2.74-1.84-5.49-2.07-8.62,6.45-.06,12.42.27,18.4.59,1.32,2.75,2.65,5.5,4.01,8.62Z"/><path class="cls-34" d="M318,563.64c-5.95.02-11.93-.3-18.35-.63-1.11-2.09-1.78-4.18-2.01-6.64,5.88-.09,11.31.2,16.75.48,1.19,2.15,2.39,4.29,3.61,6.79Z"/><path class="cls-22" d="M314.3,556.55c-5.35.02-10.78-.26-16.66-.54-.64-.24-.79-.51-1.06-.95-.66-1.86-1.14-3.57-1.63-5.66,4.64-.38,9.28-.38,14.37-.38,1.67,1.86,2.9,3.71,4.38,5.78.34.63.43,1.03.6,1.75Z"/><path class="cls-23" d="M284.09,572.22c-.34-.65-.54-1.06-.77-1.7,3.01-1.19,6.07-2.16,9.13-3.13.16.25.32.49.48.74-2.02,1.74-4.03,3.48-6.24,5.51-.94-.2-1.69-.7-2.59-1.43Z"/><path class="cls-32" d="M270.26,601.91c1.04.63,2.09,1.26,3.41,2.01.87,1.57,1.47,3.01,2.18,4.78-4.49,4.01-9.1,7.7-14.13,11.41-1.39-1.5-2.35-3.04-3.34-4.72-6.04-1.51-9-6.4-12.42-11.19.81-1.89,1.66-3.41,3.11-4.92,1.71,1.58,2.82,3.14,4.06,5.02,1.61,2.8,3.09,5.27,4.73,8.01,4.56-3.83,8.48-7.12,12.4-10.42Z"/><path class="cls-46" d="M314.83,594.3c.32-.3.48-.3,1.07.02,4.95,1.77,9.49,3.21,14.06,4.9.03.24.05.73.05.73-1.66,2.11-3.31,4.23-5.01,6.68-.86,1.57-1.67,2.79-2.74,4.21-5.42-1.26-10.59-2.72-16.75-4.45,3.29-4.23,6.23-8.01,9.32-12.09Z"/><path class="cls-88" d="M224.94,572.25c-2.32-6.27-6.51-7.59-11.19-3.56-.6.52-1.37.83-2.41,1.28.88-3.41,2.12-6.86,3.49-10.64.96-2.2,1.77-4.07,2.86-6.14,10.54,1,16.04,9.68,23.79,14.84,2.31,1.53,4.48,3.26,7.06,4.94-.51,2.28-1.37,4.52-2.78,6.95-7.31-2.43-14.06-5.05-20.81-7.67Z"/><path class="cls-7" d="M224.62,572.25c7.06,2.61,13.81,5.23,20.91,7.96,4.05,2.46,7.75,4.82,11.5,7.2,1.85-1.54,3.58-2.98,5.66-4.55,1.47,1.5,2.61,3.13,4.01,4.95.78,2.65,1.29,5.11,1.41,8.12-3.43-.03-5.73.86-7.97,3.21-1.94,2.03-4.72,3.26-7.13,4.84-1.11-1.56-2.23-3.12-3.62-4.83-2.07-2.84-3.87-5.54-6.01-8.31-4.74-8.01-12.7-11.77-20.02-17.1-.33-.82-.32-1.22-.31-1.61.42.04.84.08,1.57.12Z"/><path class="cls-11" d="M330.24,600.19c-.24-.24-.26-.73-.24-1.32,1.81-3.59,3.59-6.59,5.64-10.02-3.89-1.14-6.88-2.01-9.86-2.88.06-.73.13-1.47.15-2.56-.34-1.56-.63-2.76-.9-4.33,3.54,1.6,7.08,3.32,11.76,1.18,2.67.8,4.7,1.39,6.48,2.23-2.02,2.11-3.79,3.97-5.6,5.86,1.9,2.8,3.61,5.33,5.32,7.86-.6.75-1.2,1.5-1.92,2.51-2.03,1.73-3.93,3.2-5.99,4.96-4.38,2.55-2.82-2.44-4.83-3.49Z"/><path class="cls-26" d="M343.51,582.22c-2.03-.58-4.06-1.17-6.34-2.05,2.34-1.71,4.92-3.12,7.7-4.81,4.61-1.31,9.02-2.33,13.86-3.36-3.26,2.76-6.94,5.53-11.15,8.62-1.71.75-2.89,1.18-4.07,1.61Z"/><path class="cls-11" d="M324.56,577.83c-.27.09-.45-.12-.56-.61.26-.08.45.12.56.61Z"/><path class="cls-49" d="M504.39,601.94c-2.05-3.04-3.71-6.11-5.42-9.54,6.08-1.94,12.21-3.52,18.69-5.25,2.6,2.78,4.86,5.71,7.11,8.65-2.98,1.13-5.91,2.44-8.96,3.36-3.63,1.09-7.35,1.85-11.42,2.79Z"/><path class="cls-24" d="M486.19,602.86c-.15-.19-.02-.42.33-.72.23.2.13.45-.33.72Z"/><path class="cls-88" d="M222.87,571.87c.17.66.16,1.06.17,1.75-.83-.48-1.67-1.26-2.52-2.03.72,0,1.44.01,2.34.28Z"/><path class="cls-69" d="M343.27,582.48c1.42-.69,2.61-1.12,4.1-1.6,1.38,3.41,2.44,6.86,3.58,10.69-.53.77-1.14,1.18-1.92,1.79-1.89,1.08-3.6,1.95-5.67,2.82-2.08-2.52-3.79-5.05-5.69-7.85,1.81-1.89,3.58-3.75,5.6-5.86Z"/><path class="cls-5" d="M253.13,604.31c2.29-1.91,5.07-3.14,7.01-5.17,2.24-2.35,4.54-3.24,7.84-2.87.8,1.52,1.34,3.27,2.08,5.32-3.72,3.6-7.64,6.9-12.19,10.72-1.64-2.74-3.13-5.22-4.73-8.01Z"/><path class="cls-54" d="M325.43,585.97c3.33.87,6.31,1.75,10.21,2.88-2.04,3.43-3.83,6.43-5.67,9.78-4.59-1.1-9.13-2.54-13.83-4.31,2.87-3,5.91-5.67,9.29-8.35Z"/></g></svg>