<?xml version="1.0" encoding="utf-8"?>
<!-- Generator: Adobe Illustrator 28.2.0, SVG Export Plug-In . SVG Version: 6.00 Build 0)  -->
<svg version="1.1" id="Layer_1" xmlns="http://www.w3.org/2000/svg" xmlns:xlink="http://www.w3.org/1999/xlink" x="0px" y="0px"
	 viewBox="0 0 1500 664" style="enable-background:new 0 0 1500 664;" xml:space="preserve">
<style type="text/css">
	.st0{fill:#FFFFFF;}
	.st1{fill:#433230;}
	.st2{fill:#FF071E;}
	.st3{fill:#FF071F;}
	.st4{fill:#EFE7DA;}
	.st5{fill:#EEE6D9;}
	.st6{fill:#7C5D48;}
	.st7{fill:#FFFCFD;}
	.st8{fill:#FEFCFC;}
	.st9{fill:#FEFBFC;}
	.st10{fill:#FFFBFC;}
	.st11{fill:#886650;}
	.st12{fill:#FEFBFB;}
	.st13{fill:#FFFEFE;}
	.st14{fill:#FFFDFD;}
	.st15{fill:#FFFBFB;}
	.st16{fill:#FFFCFC;}
	.st17{fill:#FFFAFB;}
	.st18{fill:#FFF9F9;}
	.st19{fill:#FFF7F7;}
</style>
<path class="st0" d="M665,1c166.9,0,333.9,0,501,0c0,154,0,308-0.4,462.4c-0.8-4-0.8-8.3-1.7-12.4c-5.6-27-15.9-52.1-31.4-75.1
	c-13-19.3-28.8-35.8-46.2-51.1c-12-10.6-25.1-19.6-39.2-27.1c-28-14.9-57.8-23.2-89.8-22.7c-7.7,0.1-15.4,0-22.5,0
	c-1.2-14.3-2.3-29.1-3.9-43.8c-2-18.9-7.1-37.1-13.8-54.9c-12.5-33.8-31.9-63.2-56.6-89c-7.7-8-16.5-15.1-25.1-22.2
	c-24.2-20-51.6-34.5-81.1-45c-24.8-8.9-50.3-14.9-76.6-17.1C673.5,2.6,669.2,1.7,665,1z"/>
<path class="st1" d="M664.5,1c4.7,0.7,8.9,1.6,13.2,1.9c26.3,2.2,51.8,8.2,76.6,17.1c29.5,10.5,56.9,25,81.1,45
	c8.6,7.1,17.4,14.2,25.1,22.2c24.7,25.9,44.1,55.2,56.6,89c6.6,17.9,11.8,36,13.8,54.9c1.5,14.7,2.6,29.5,3.9,43.8
	c7.2,0,14.8,0.1,22.5,0c32-0.6,61.7,7.8,89.8,22.7c14.1,7.5,27.2,16.5,39.2,27.1c17.4,15.3,33.2,31.8,46.2,51.1
	c15.5,23,25.8,48,31.4,75.1c0.9,4.2,0.9,8.5,1.7,12.9c0.4,12.9,0.4,25.5,0,38.9c-1.8,8.6-2.7,16.7-4.7,24.6
	c-7,27.9-20.3,52.4-40.1,73.3c-6.8,7.2-14.1,14-21.6,20.6c-8.9,7.7-17.9,15.3-27.3,22.3c-6.2,4.6-13.4,8.5-21.6,7.5
	c-4.4-0.5-8.6-2.4-12.8-3.7c-16.2-4.9-29.7-15-43.2-24.5c-12.3-8.7-24-18.1-36.3-27.5c-10.3,13.3-20.4,26.7-31,39.7
	c-6.2,7.6-12.5,15.3-20.1,21.3c-5.5,4.4-13.2,6-19.9,8.9c-7.4,0-14.7,0-22.7-0.4c-11.7-2.6-21.5-7.7-29.5-15.5
	c-14.5-14-28.7-28.3-42.8-42.8c-14.9-15.4-19.8-34.1-15.9-55c2-10.9,7.3-20.5,15.7-27.4c17.3-14.3,35.4-27.7,53.6-41.8
	c-2.3-3.1-4.5-6-6.7-9c-11.6-16.2-23.5-32.3-34.7-48.8c-3.5-5.2-6.1-9.7-13.4-6.6c-2.5,1-5.5,0.8-8.2,1.1
	c-11.1,1.1-22.1,2.1-33.4,3.2c0.4,4.2,0.5,8.1,1.1,12c1.6,11.8,3.4,23.5,4.9,35.3c1.5,12,2.8,24,4,36.1c1.4,14,3.2,28,3.9,42.1
	c0.9,18.4-7,34-18.6,47.4c-17.3,19.8-39.8,28.8-66,28.9c-30.2,0.1-60.3,0.2-90.5-0.1c-6.3-0.1-12.7-1-18.9-2.5
	c-26.9-6.6-46.8-22.4-57.5-48.1c-3.8-9.1-5-19.4-6.1-29.3c-0.7-5.7,1.1-11.7,1.8-17.5c1-8.9,2-17.9,3.1-26.8
	c1.2-9.7,2.6-19.4,3.9-29.1c1.3-9.4,2.6-18.7,3.8-28.1c0.8-6.7,1.5-13.5,2.2-20.3c-6.7-0.8-12.9-1.5-19-2.2
	c-9.9-1-19.9-1.7-29.8-3.1c-15.7-2.3-31.5-4.7-47-8c-13.2-2.8-26.4-6.4-39.2-10.6c-7.7-2.6-14.5-7.8-22.1-10.7
	c-8.5-3.2-12.8-9.5-15.8-17.2c-7.3-18.4-8.9-37.9-10.1-57.4c-0.1-1.7-0.6-3.3-1-5c0-21,0-42,0.4-63.7c1.5-9.4,2-18.3,4-26.8
	c5.5-24.2,13.7-47.3,25.4-69.3c11.9-22.3,27-42.2,44.2-60.6c6.1-6.5,13.1-12,19.8-17.9c15.1-13.3,31.9-24,49.5-33.4
	c19.3-10.3,39.6-18.4,60.8-23.7c16.5-4.1,33.4-6.5,50.1-9.6c4.5-0.8,9.2-1.4,13.7-2C624,1,644,1,664.5,1 M1123.6,562.2
	c0.3-0.3,0.5-0.7,1.3-1.5c8-13.2,13.6-27.3,17.1-43.2c6.3-26.8,5.6-53.7-3.1-79.7c-21.7-64.7-65.2-109.2-128.8-133.3
	c-28.4-10.7-58-12-88.5-5c-10.5,3.7-21,7.5-32.3,11.4c-0.5,0.2-0.9,0.4-1.4,0.6c-24.5,11.6-42.7,30.7-60,50.8
	c-5.4,6.3-10.1,13.1-14.7,19c11.4,6.9,22.6,12.8,32.9,20c12.7,8.8,24.7,18.5,37.4,28.3c9.4,8.1,18.8,16.2,28.6,25
	c19,18.6,38.1,37,56.8,55.8c11.1,11.2,21.4,23.1,32.3,35.3c6.2,7.4,12.5,14.8,19,22.8c14.2,18.5,28.9,36.8,38.2,59.7
	c8-6.4,15.5-12,22.6-18.3c14.6-12.9,29-25.9,39.7-42.4c1.1-1.7,1.6-3.8,2.4-5.6C1123,562,1122.9,562,1123.6,562.2 M956.8,527.2
	c-19.7-19.7-39.4-39.4-59-59.1c-30.9,24-60.9,47.2-90.6,70.6c-3,2.4-5,6.1-8,9.6c-7,14.6-5.1,28.9,5.4,40.4
	c14.8,16.4,30.4,32.2,46.9,46.9c16.4,14.7,40.3,11.6,52.8-5.2c16.5-22.3,34-43.9,51-65.9c5.5-7,11-14.1,16.7-21.4
	C966.7,537.9,961.9,532.9,956.8,527.2 M527.8,556.8c0.2,1,0.3,2,0.6,2.9c7.8,25.3,32.6,43.3,60.2,43.4c30,0.1,60,0.1,89.9,0
	c4.5,0,9-0.4,13.4-1.1c26.3-4.5,47.4-25,50.3-51.1c1.2-10.4-0.9-21.2-2.2-31.7c-6.6-54.5-13.5-109-20.2-163.4
	c-0.4-3-1.4-4.4-4.5-4.5c-11.5-0.3-22.9-0.7-35.3-1.2c-43.3-0.9-86.5-0.8-130,1.5c-1.8,14.7-3.5,29-5.3,43.4
	c-2.9,22.7-5.9,45.5-8.8,68.2c-3,23.4-6.2,46.8-8.6,70.2C526.6,540.8,527.7,548.4,527.8,556.8 M828.7,86.4
	c-18.5-15.7-38.9-28.5-61-38.4c-48.2-21.5-98.9-28.8-151.3-26.4c-28.1,1.3-55.6,5.6-82.2,14.5c-11.3,3.7-22.1,8.9-34,13.2
	c-12.7,7.4-25.5,14.9-38.9,22.5c-21.1,14.6-39.6,32-55.2,52.4c-30.3,39.5-47.6,84.1-49.7,134c-1.1,26.9,0.2,53.9,4,80.7
	c1.2,8.1,3.5,16,5.4,24.7c15-9.6,30.6-13.9,46.5-16.4c29.2-4.7,58.5-9.3,87.9-12c33.4-3.1,67-5,100.6-5.6
	c36.9-0.6,73.9,0.6,110.8,1.5c14.6,0.3,29.3,1.4,43.8,2.7c20.4,1.8,40.7,4.2,61,6.2c1.7,0.2,4.1-0.4,5.3-1.6
	c11.2-10.3,22.3-20.9,34.1-31.5c15.4-10.8,32.1-19,50.2-24.4c7.2-2.1,7.2-2.2,6.8-10.5c-0.7-12.6-0.4-25.3-2.2-37.8
	c-5.7-41.6-21.8-79-47.7-112.1c-5.3-6.7-11.6-12.6-17.8-19.4C839.7,97.4,834.4,92.2,828.7,86.4 M465.7,394.9c0.8,0,1.7,0,2.5,0.1
	c16.1,1.9,32.2,3.9,48.3,5.8c3.6,0.4,6.9,0.6,7.5-4.5c1.2-11,2.7-22,4-33c0.4-3.3,0.6-6.7,0.9-10.7c-48.5,4.6-96.5,7.4-142.5,23
	c0.9,1.2,1.6,1.8,2.5,2.1c10.8,3.1,21.6,6.7,32.6,9.1C435.8,390,450.4,392.2,465.7,394.9 M741.1,364.3c0.2,0.8,0.5,1.6,0.6,2.4
	c1.1,9.2,2.4,18.4,3.2,27.6c0.6,6.4,0.8,7.1,7,6.7c8.1-0.5,16.2-1.3,24.2-2.2c5.2-0.6,10.3-1.5,15.5-2.2
	c-5.3-15.5,5.3-25.7,12.1-37.9c-21.4-2-42.3-4-63.8-6C740.4,356.9,740.7,360.1,741.1,364.3 M989.2,563.3c-1.1-1.4-2.3-2.7-3.7-4.3
	c-5,6.5-9.8,12.6-14.8,19c19.6,15.9,38.8,31.6,61,43.1C1019.7,600.4,1005.2,581.8,989.2,563.3 M827.8,423.7
	c10.7,15.8,22,31.3,34.8,45.6c6.5-5.1,12.3-9.7,18.6-14.7c-20-16.8-39.4-33.3-61.5-46.2c-0.3,0.3-0.6,0.6-1,0.9
	C821.7,413.9,824.6,418.5,827.8,423.7z"/>
<path class="st0" d="M336,308.5c0.3,1.2,0.9,2.8,1,4.5c1.2,19.5,2.8,39,10.1,57.4c3,7.7,7.3,14,15.8,17.2
	c7.6,2.9,14.4,8.1,22.1,10.7c12.8,4.3,26,7.8,39.2,10.6c15.6,3.3,31.3,5.7,47,8c9.9,1.5,19.9,2.1,29.8,3.1c6.2,0.7,12.3,1.4,19,2.2
	c-0.7,6.8-1.4,13.6-2.2,20.3c-1.2,9.4-2.5,18.7-3.8,28.1c-1.3,9.7-2.7,19.4-3.9,29.1c-1.1,8.9-2.1,17.9-3.1,26.8
	c-0.7,5.8-2.4,11.8-1.8,17.5c1.2,9.9,2.4,20.2,6.1,29.3c10.7,25.7,30.6,41.4,57.5,48.1c6.1,1.5,12.6,2.5,18.9,2.5
	c30.2,0.3,60.3,0.2,90.5,0.1c26.1-0.1,48.7-9.1,66-28.9c11.7-13.4,19.5-29,18.6-47.4c-0.7-14.1-2.4-28.1-3.9-42.1
	c-1.2-12-2.5-24.1-4-36.1c-1.5-11.8-3.3-23.6-4.9-35.3c-0.5-3.9-0.7-7.8-1.1-12c11.3-1.1,22.3-2.1,33.4-3.2c2.8-0.3,5.8-0.1,8.2-1.1
	c7.3-3,9.9,1.5,13.4,6.6c11.2,16.5,23.1,32.5,34.7,48.8c2.1,3,4.4,5.9,6.7,9c-18.2,14.1-36.3,27.5-53.6,41.8
	c-8.4,6.9-13.7,16.5-15.7,27.4c-3.9,20.9,1,39.6,15.9,55c14,14.5,28.3,28.7,42.8,42.8c8.1,7.8,17.8,12.9,29.1,15.5
	C688.1,665,512.2,665,336,665C336,546.3,336,427.6,336,308.5z"/>
<path class="st0" d="M603.5,1c-4.1,0.7-8.7,1.2-13.3,2c-16.7,3.1-33.7,5.5-50.1,9.6c-21.2,5.3-41.5,13.3-60.8,23.7
	c-17.6,9.4-34.5,20.1-49.5,33.4c-6.7,5.9-13.7,11.5-19.8,17.9c-17.2,18.3-32.3,38.2-44.2,60.6c-11.7,22-20,45.1-25.4,69.3
	c-1.9,8.6-2.4,17.4-4,26.4C336,163.1,336,82.1,336,1C425,1,514,1,603.5,1z"/>
<path class="st0" d="M887.5,665c6.2-2.9,13.9-4.5,19.4-8.9c7.6-6,13.9-13.8,20.1-21.3c10.6-13,20.7-26.4,31-39.7
	c12.3,9.4,24.1,18.8,36.3,27.5c13.6,9.6,27,19.6,43.2,24.5c4.3,1.3,8.5,3.2,12.8,3.7c8.2,1,15.3-2.8,21.6-7.5
	c9.4-7,18.5-14.5,27.3-22.3c7.5-6.5,14.7-13.4,21.6-20.6c19.8-20.9,33.1-45.5,40.1-73.3c2-7.8,2.9-15.9,4.7-24.1
	c0.4,53.8,0.4,107.7,0.4,161.8C1073.3,665,980.6,665,887.5,665z"/>
<path class="st2" d="M845.5,103.2c5.8,6.3,12.1,12.2,17.4,18.9c25.9,33.1,42,70.5,47.7,112.1c1.7,12.5,1.5,25.2,1.8,38.1
	c-12-11.9-28.9-14.5-42.6-6.3c-14.2,8.4-20,24.7-14.7,41.1c-11.1,10.5-22.2,21-33.4,31.4c-1.2,1.1-3.6,1.7-5.3,1.6
	c-20.4-2-40.7-4.4-61-6.2c-14.6-1.3-29.2-2.3-43.8-2.7c-36.9-0.8-73.9-2.1-110.8-1.5c-33.6,0.6-67.2,2.5-100.6,5.6
	c-29.4,2.7-58.7,7.3-87.9,12c-15.9,2.5-31.5,6.9-46.5,16.4c-1.9-8.6-4.2-16.6-5.4-24.7c-3.8-26.8-5.1-53.7-4-80.7
	c2.1-49.9,19.4-94.4,49.7-134c15.6-20.4,34.1-37.8,55.7-52.2c1.1,1.4,1.6,2.6,2.3,3.8c5.5,8.5,13.5,12.2,23.4,11
	c9.1-1,16-6,19.1-14.7c3.1-8.6,1.1-16.4-5.6-22.7c11-4.5,21.9-9.6,33.2-13.3c26.7-8.8,54.2-13.1,82.2-14.5
	c52.4-2.5,103.1,4.9,151.3,26.4c22.2,9.9,42.5,22.7,60.7,38.7c-6.7-0.4-12.9,0.4-18.4,4c-7.2,4.7-9.7,12.8-6,19.8
	c3.9,7.4,14.5,11.8,24.2,10C838.9,118.7,844.4,113.1,845.5,103.2 M758.6,241.8c10.4,29.1,40.2,43.9,69.1,34.3
	c28-9.3,43.5-39.3,34.8-67.7c-8.7-28.4-38.6-44.7-67.3-36.4C767.5,179.9,748.8,209.1,758.6,241.8 M510.1,208.7
	c3.2,0.1,6.3,0.4,9.5,0.4c26.1,0,47.6-21.3,48.2-47.9c0.7-25.9-20.2-48.7-45.8-50.1c-26-1.4-49,17-52.1,41.7
	C466.6,179.9,482.9,203,510.1,208.7 M649.1,241.2c-1.2-0.5-2.5-0.9-3.7-1.4c-13.8-4.5-28.7,0.2-37.5,11.6
	c-8.7,11.4-9.4,27.5-1.6,39.2c8.1,12.3,22.8,17.9,37,14.3c13.8-3.5,23.6-15,25.4-30C670.3,261.9,662.9,248.8,649.1,241.2
	 M722.7,66.8c-11.1-13.8-28.3-17.8-43.2-9.9C665.2,64.5,658,81,662.7,96.3c4.2,13.9,13.8,22.3,28.1,24.3
	c13.8,1.9,25.4-3.2,32.9-15.1C731.7,92.9,731.2,80,722.7,66.8 M390.3,285c7.8,11.7,20.6,15.8,32.4,10.3c11.2-5.2,17-17.7,13.7-29.5
	c-4.1-14.4-19-22-33.1-16.8C389.1,254.2,383.2,269.8,390.3,285 M524.7,263.9c-8.4-9.8-24.2-11.4-34.2-3.4
	c-7.9,6.3-8.2,16.9-0.7,23.4c8.2,7.1,22.5,7.6,31.1,0.9C527.9,279.4,529.3,272.4,524.7,263.9 M661.5,175.8c-1.3-2.8-2-6.1-3.9-8.4
	c-8.2-9.6-26.3-9.7-35-0.5c-5.7,6.1-5.6,14.6,0.3,20.6c8.3,8.5,24.4,8.9,33.3,0.9C659.7,185.3,661.7,181.5,661.5,175.8 M760.8,322.6
	c2.2-0.7,4.5-1.2,6.6-2.2c6.1-3,10.2-7.5,10.1-14.7c-0.1-7.2-4.4-11.8-10.5-14.5c-8.4-3.7-16.9-3.4-24.8,1.6
	c-10.5,6.7-10.4,19.5,0.1,26.2C747.7,322.6,753.6,323.5,760.8,322.6 M564.4,82.2c9.5,6.4,21.4,6.5,29.9,0.3
	c9.1-6.6,9.2-18.4,0.1-24.8c-8.1-5.8-17-6.3-26-2.2C556.5,61,554.6,72.5,564.4,82.2 M417.3,193.6c7.7,1.4,15,0.6,21.2-4.4
	c8.8-7.1,8.4-18.6-1.1-24.7c-9-5.8-18.5-5.9-27.8-0.4c-7.7,4.6-10.2,13.1-6.2,20.1C406.4,189.1,411,191.9,417.3,193.6z"/>
<path class="st3" d="M883,429.1c-12.3-9.3-24.3-19.1-37-27.8c-10.3-7.1-21.4-13.1-32.9-20c4.6-6,9.4-12.8,14.7-19
	c17.3-20.1,35.5-39.2,60-50.8c0.4-0.2,0.9-0.4,1.8-0.2c1.6,11.1,8.1,18.1,17.2,18.6c7.3,0.4,13-2.6,16.6-8.9
	c4.1-7.3,3.7-14.6-1.2-21.5c29.8-7,59.4-5.7,87.8,5c63.6,24.1,107.1,68.6,128.8,133.3c8.7,26,9.4,52.8,2.7,79.9
	c-8.1-13-21.6-18.9-35.5-15.2c-13.3,3.6-22.5,15.5-22.6,29.4c-0.1,13.9,8.8,26.3,22.3,29.5c5.5,1.3,11.5,0.5,17.2,0.6
	c-0.8,1.9-1.3,4-2.4,5.7c-10.7,16.5-25.1,29.5-39.7,42.4c-7,6.2-14.6,11.9-22.6,18.3c-9.3-23-23.9-41.2-38-60.2
	c8.5-1.9,13.9-6.5,15.5-14.7c1.5-7.4-1-13.8-7.3-18.3c-8.1-5.8-22.6-4.3-27.7,10c-10.7-11.6-21-23.5-32.1-34.7
	c-18.7-18.9-37.8-37.3-56.6-56.3c11-2.9,15.6-10.3,12.9-21.1c-2.4-9.6-8.5-16.1-17.5-19.7C895.8,408.5,882.8,413.1,883,429.1
	 M995.9,343.6c-0.7-0.9-1.3-1.9-2.1-2.8c-8.3-10-22.1-13.8-34.3-9.4c-12,4.3-20.1,16-20.1,28.8c0,13.1,8.1,24.6,20.5,29
	c12,4.2,24.9,0.8,33.5-9.1C1001.9,370.6,1002.9,357.1,995.9,343.6 M994,480.6c7.9-5.9,10.7-14,8.6-23.4c-1.9-8.6-7.6-14.3-16.4-16.3
	c-9.2-2.2-16.8,0.7-22.7,7.8c-6.6,8-6.3,20.1,0.5,28.1C971.4,485.4,982.5,487,994,480.6 M1071.3,388.8c-7,7.2-8.6,16.3-4.1,24
	c4.3,7.2,13.1,10.9,21,8.6c7.7-2.2,12.6-7.2,13.8-15.3c1.2-8-1.6-14.5-8.4-18.8C1086.4,382.7,1079,383.2,1071.3,388.8 M1046.5,474
	c8,6.9,17.8,7.4,24.8,1.1c6.6-5.9,8-15.9,3.2-23.2c-5.4-8.4-16.8-10.7-25-5.1C1040.6,452.9,1039.1,464,1046.5,474 M869.7,348
	c-10.6,1.8-17,9.8-15.3,19c1.6,8.8,9.4,14.8,17.9,13.9c8.6-0.9,14.9-7.9,14.8-16.6C887.1,355.1,880.6,348.7,869.7,348 M1019.9,337.3
	c2.7,6,7.2,9.5,13.8,9.8c5.6,0.2,9-4.1,7.9-9.5c-1-5.3-6.5-10.7-11.9-11.6C1022.1,324.6,1018.3,328.6,1019.9,337.3 M1021.3,402.7
	c-7.9-2.2-13.3,0.9-13.2,7.6c0,5.1,4,9.8,9.2,10.9c4.3,0.9,8,0.1,10.3-4c2.3-4.1,0.6-9.4-3.9-13.2
	C1023.3,403.6,1022.6,403.4,1021.3,402.7z"/>
<path class="st0" d="M527.9,556c-0.2-7.6-1.4-15.2-0.6-22.7c2.5-23.4,5.7-46.8,8.6-70.2c2.9-22.7,5.9-45.5,8.8-68.2
	c1.8-14.3,3.5-28.7,5.3-43.4c43.5-2.3,86.7-2.5,130.5-1.1c1.8,11.6,3.2,22.8,4.4,33.9c1.2,11,2.2,22,3.4,33.1
	c1.1,9.7,2.5,19.3,3.6,29c1.2,11.3,1.8,22.8,3.3,34.1c1.4,11,2.6,22,0.8,33.1c-2.8,17.3-11.8,29.6-28.2,36.2c-10.6,4.3-21.7,6-33,6
	C599.2,556.1,563.6,556,527.9,556z"/>
<path class="st4" d="M527.9,556.4c35.7-0.4,71.3-0.3,106.9-0.5c11.3-0.1,22.4-1.8,33-6c16.4-6.6,25.4-18.9,28.2-36.2
	c1.8-11.1,0.5-22.1-0.8-33.1c-1.4-11.3-2.1-22.7-3.3-34.1c-1-9.7-2.5-19.3-3.6-29c-1.2-11-2.2-22-3.4-33.1
	c-1.2-11.2-2.6-22.3-4-33.9c11.4,0,22.9,0.4,34.4,0.7c3.1,0.1,4.2,1.5,4.5,4.5c6.7,54.5,13.6,108.9,20.2,163.4
	c1.3,10.5,3.4,21.3,2.2,31.7c-2.9,26.1-24,46.7-50.3,51.1c-4.4,0.7-8.9,1.1-13.4,1.1c-30,0.1-60,0.1-89.9,0
	c-27.6-0.1-52.4-18.1-60.2-43.4C528.2,558.8,528,557.8,527.9,556.4z"/>
<path class="st0" d="M799.8,547.9c2.4-3.1,4.4-6.8,7.4-9.2c29.8-23.4,59.7-46.5,90.6-70.6c19.7,19.7,39.3,39.4,59,59.7
	c-9.7,12.6-19.3,24.7-29.1,36.6c-9.7,11.7-19.3,23.7-29.7,34.8c-8.4,9-19.6,11.9-31,7c-7.4-3.2-14.6-8-20.5-13.6
	c-14.4-13.4-27.9-27.6-41.9-41.5C803.2,549.8,801.4,549,799.8,547.9z"/>
<path class="st5" d="M799.5,548.1c1.9,0.9,3.7,1.7,5.1,3c14,13.8,27.5,28.1,41.9,41.5c5.9,5.5,13.1,10.4,20.5,13.6
	c11.4,4.9,22.6,1.9,31-7c10.4-11.1,20-23,29.7-34.8c9.8-11.9,19.4-24,29.2-36.3c5,4.7,9.8,9.7,14.9,15c-5.7,7.3-11.2,14.4-16.7,21.4
	c-17,21.9-34.5,43.6-51,65.9c-12.5,16.8-36.4,20-52.8,5.2c-16.4-14.8-32.1-30.5-46.9-46.9C794.1,577.2,792.3,563,799.5,548.1z"/>
<path class="st6" d="M465.3,394.9c-14.9-2.7-29.5-4.9-43.9-8c-11-2.4-21.7-6-32.6-9.1c-0.9-0.3-1.7-0.9-2.5-2.1
	c46-15.7,94-18.4,142.5-23c-0.3,4-0.5,7.4-0.9,10.7c-1.3,11-2.8,22-4,33c-0.6,5.1-3.8,5-7.5,4.5c-16.1-1.9-32.2-3.9-48.3-5.8
	C467.4,394.9,466.6,395,465.3,394.9z"/>
<path class="st7" d="M1123,562c-5.8-0.2-11.8,0.7-17.2-0.6c-13.5-3.2-22.4-15.6-22.3-29.5c0.1-13.9,9.3-25.9,22.6-29.4
	c13.9-3.7,27.4,2.2,35.4,15.6c-3,15.3-8.7,29.4-17.2,42.8C1123.5,561.4,1123.2,561.7,1123,562C1122.9,562,1123,562,1123,562z"/>
<path class="st6" d="M741,363.8c-0.3-3.7-0.6-6.9-1.1-11.2c21.5,2,42.4,4,63.8,6c-6.7,12.2-17.4,22.3-12.1,37.9
	c-5.2,0.8-10.4,1.7-15.5,2.2c-8.1,0.9-16.2,1.7-24.2,2.2c-6.1,0.4-6.4-0.3-7-6.7c-0.9-9.2-2.1-18.4-3.2-27.6
	C741.6,365.8,741.3,365.1,741,363.8z"/>
<path class="st8" d="M855.5,306.9c-5.6-16.3,0.2-32.6,14.4-41c13.8-8.2,30.6-5.5,42.6,6.8c0.7,7.6,0.7,7.6-6.4,9.8
	C887.9,287.8,871.2,296,855.5,306.9z"/>
<path class="st9" d="M883.2,429.3c-0.4-16.2,12.6-20.8,24.5-16.1c8.9,3.6,15.1,10.1,17.5,19.7c2.7,10.8-1.9,18.2-13.1,20.8
	C902.3,445.8,892.9,437.7,883.2,429.3z"/>
<path class="st10" d="M845.3,102.9c-0.9,10.2-6.5,15.8-17.1,17.7c-9.7,1.7-20.3-2.6-24.2-10c-3.7-7-1.3-15.1,6-19.8
	c5.6-3.6,11.7-4.4,18.6-3.7C834.4,92.2,839.7,97.4,845.3,102.9z"/>
<path class="st11" d="M989.4,563.6c15.8,18.2,30.3,36.8,42.3,57.5c-22.2-11.6-41.4-27.2-61-43.1c5-6.4,9.7-12.5,14.8-19
	C986.9,560.6,988,562,989.4,563.6z"/>
<path class="st8" d="M500.6,49.4c7.1,6.4,9.1,14.2,6,22.8c-3.1,8.7-9.9,13.7-19.1,14.7c-9.9,1.1-17.9-2.5-23.4-11
	c-0.7-1.1-1.2-2.4-2-3.9C474.7,64.2,487.4,56.8,500.6,49.4z"/>
<path class="st11" d="M827.6,423.4c-3.1-4.9-6-9.5-8.8-14.1c0.3-0.3,0.6-0.6,1-0.9c22.1,13,41.5,29.4,61.5,46.2
	c-6.3,5-12.1,9.6-18.6,14.7C849.8,455,838.6,439.5,827.6,423.4z"/>
<path class="st8" d="M1001,545.4c4.9-14.6,19.4-16.1,27.5-10.3c6.3,4.5,8.8,10.8,7.3,18.3c-1.6,8.2-7.1,12.8-15.6,14.4
	C1013.6,560.5,1007.4,553.1,1001,545.4z"/>
<path class="st12" d="M921.9,299.5c5.3,6.9,5.7,14.2,1.6,21.5c-3.6,6.3-9.3,9.2-16.6,8.9c-9.2-0.5-15.6-7.6-16.9-18.7
	C900.5,307,911,303.2,921.9,299.5z"/>
<path class="st3" d="M1123.3,562.1c-0.1-0.4,0.2-0.7,0.8-0.9C1124.1,561.5,1123.8,561.8,1123.3,562.1z"/>
<path class="st13" d="M758.4,241.4c-9.6-32.3,9.1-61.5,36.8-69.4c28.7-8.2,58.6,8,67.3,36.4c8.7,28.3-6.8,58.4-34.8,67.7
	C798.8,285.7,769,270.9,758.4,241.4z"/>
<path class="st13" d="M509.7,208.6c-26.8-5.6-43.1-28.7-39.7-55.8c3.1-24.7,26-43,52.1-41.7c25.5,1.3,46.4,24.2,45.8,50.1
	c-0.7,26.6-22.1,47.9-48.2,47.9C516.4,209.1,513.3,208.9,509.7,208.6z"/>
<path class="st14" d="M649.4,241.4c13.5,7.4,20.9,20.5,19.3,33.6c-1.8,14.9-11.6,26.5-25.4,30c-14.2,3.6-28.9-2.1-37-14.3
	c-7.8-11.7-7.1-27.8,1.6-39.2c8.7-11.4,23.7-16.1,37.5-11.6C646.6,240.3,647.8,240.8,649.4,241.4z"/>
<path class="st14" d="M722.9,67.1c8.2,12.8,8.8,25.7,0.8,38.3c-7.6,11.9-19.1,17-32.9,15.1c-14.3-2-23.8-10.4-28.1-24.3
	c-4.7-15.3,2.5-31.8,16.8-39.3C694.4,49.1,711.6,53,722.9,67.1z"/>
<path class="st7" d="M390.2,284.6c-6.9-14.9-1-30.4,13.2-35.7c14.1-5.2,29,2.4,33.1,16.8c3.3,11.8-2.4,24.2-13.7,29.5
	C410.9,300.7,398.1,296.7,390.2,284.6z"/>
<path class="st15" d="M524.9,264.2c4.4,8.2,2.9,15.2-4,20.6c-8.6,6.6-22.9,6.2-31.1-0.9c-7.5-6.5-7.1-17.1,0.7-23.4
	C500.5,252.5,516.3,254.1,524.9,264.2z"/>
<path class="st15" d="M661.5,176.2c0.2,5.2-1.8,9.1-5.3,12.2c-8.9,8-25,7.6-33.3-0.9c-5.9-6-6-14.5-0.3-20.6
	c8.7-9.3,26.8-9.2,35,0.5C659.6,169.7,660.3,173,661.5,176.2z"/>
<path class="st10" d="M760.4,322.7c-6.7,0.8-12.7-0.1-18.1-3.6c-10.5-6.7-10.6-19.5-0.1-26.2c7.9-5,16.4-5.3,24.8-1.6
	c6.1,2.7,10.4,7.2,10.5,14.5c0.1,7.2-4.1,11.7-10.1,14.7C765.3,321.4,763,321.9,760.4,322.7z"/>
<path class="st16" d="M564.1,82c-9.5-9.5-7.6-21,4.3-26.5c9-4.2,17.9-3.6,26,2.2c9.1,6.5,9,18.2-0.1,24.8
	C585.8,88.7,573.8,88.6,564.1,82z"/>
<path class="st16" d="M416.9,193.4c-6-1.5-10.5-4.3-13.4-9.4c-4-7-1.5-15.6,6.2-20.1c9.3-5.5,18.8-5.4,27.8,0.4
	c9.5,6.1,9.9,17.6,1.1,24.7C432.3,194.2,425,195,416.9,193.4z"/>
<path class="st14" d="M996.1,344c6.8,13.1,5.8,26.6-2.6,36.1c-8.7,9.8-21.5,13.3-33.5,9.1c-12.4-4.4-20.5-15.8-20.5-29
	c0-12.8,8.2-24.5,20.1-28.8c12.2-4.4,26-0.6,34.3,9.4C994.6,341.7,995.3,342.7,996.1,344z"/>
<path class="st16" d="M993.7,480.8c-11.3,6.2-22.3,4.6-29.6-4c-6.8-7.9-7.1-20.1-0.5-28.1c5.9-7.2,13.5-10,22.7-7.8
	c8.8,2.1,14.4,7.7,16.4,16.3C1004.7,466.6,1002,474.7,993.7,480.8z"/>
<path class="st10" d="M1071.6,388.5c7.3-5.3,14.8-5.9,22.1-1.2c6.8,4.3,9.6,10.8,8.4,18.8c-1.2,8.1-6.1,13-13.8,15.3
	c-7.9,2.3-16.7-1.4-21-8.6C1062.8,405.1,1064.3,396,1071.6,388.5z"/>
<path class="st15" d="M1046.2,473.7c-7.1-9.8-5.7-20.9,3.3-26.9c8.2-5.6,19.6-3.2,25,5.1c4.7,7.3,3.3,17.3-3.2,23.2
	C1064.3,481.4,1054.5,481,1046.2,473.7z"/>
<path class="st17" d="M870.1,348c10.5,0.7,17,7.1,17,16.3c0.1,8.6-6.2,15.6-14.8,16.6c-8.5,0.9-16.3-5.1-17.9-13.9
	C852.7,357.8,859.1,349.8,870.1,348z"/>
<path class="st18" d="M1019.8,336.9c-1.5-8.3,2.3-12.3,10.1-11c5.4,0.9,10.9,6.3,11.9,11.6c1,5.5-2.4,9.7-7.9,9.5
	C1027.1,346.9,1022.6,343.3,1019.8,336.9z"/>
<path class="st19" d="M1021.7,402.9c0.9,0.5,1.5,0.8,2.1,1.2c4.5,3.7,6.1,9.1,3.9,13.2c-2.3,4.1-6,4.9-10.3,4
	c-5.2-1.1-9.2-5.9-9.2-10.9C1008.1,403.6,1013.5,400.5,1021.7,402.9z"/>
</svg>
